<svg xmlns="http://www.w3.org/2000/svg" viewBox="0 0 1080 1080"><path d="M506.5 111.4c37.5-3.1 75.5-1.4 112.7 5.6 4 .8 8.1 1.6 12.1 2.5 84.4 18.4 161 61.5 220.5 124.1 94.9 99.8 136.9 247.1 109.8 381.8-17.4 86.7-61.2 165.6-125.3 226.5-105 99.9-257.6 139.9-398.4 106.1-79.9-19.2-153.4-62-210-121.5-89.8-94.4-132.4-230.8-113.7-360 13.6-94.2 60.2-182.8 129.1-248.3 71.3-67.7 165.7-108.7 263.2-116.8zM540 915.8c205.2.1 371.9-165.1 375.8-368 4.1-211.6-165.4-380-368.6-383.6C337.6 160.4 164 329.2 164 541c.1 206.4 169.3 374.8 376 374.8z"/><path d="M700.1 782.5c-101.8-4.2-185.7-35.2-257.9-96.1-75-63.3-120.8-144-138.2-240.5-4.2-23.2-5-47.2-6.1-70.9-.5-11.3 3.9-21.9 12.3-30.3l27.9-27.9c24.2-24.2 58.6-25.7 84.5-3.3 10.8 9.3 18.4 20.6 21.9 34.9 4.7 19.2 10.6 38.2 15.5 57.4 5.7 22.3 0 41.9-15.6 58.8-2.8 3.1-5.5 6.5-9 8.8-12 8-11.4 17.5-6.6 30 29.1 75.1 81.5 125.4 157.9 151 5.9 2 9.8 1.2 13.9-3.5 4.5-5.3 9.7-10 14.8-14.9 16.5-16.1 36.3-21.5 58.6-16.1 20.3 5 40.4 10.7 60.5 16.4 37.2 10.6 57.6 52.1 42.5 86.5-2.5 5.7-6.6 11-10.8 15.7-6.7 7.5-14.7 13.9-21.1 21.6-14 16.6-30.9 24.6-45 22.4z"/></svg>