<svg xmlns="http://www.w3.org/2000/svg" viewBox="0 0 1080 1080"><path d="M540 1037c-8.9-10.4-17.6-19.9-25.6-30-87.7-109-175.6-218.1-246.1-339.4-28.8-49.5-55.6-100.9-76.7-154-43.1-108.5-21.2-211.6 41.1-306 65-98.4 159-152.8 276.5-163.2 211.4-18.7 394.4 144.3 401.5 356.8 1.8 54-16.7 103.9-37.4 152.7-34.5 81.1-82.1 154.7-133.9 225.3-59.8 81.4-122.6 160.6-184.1 240.6-4.4 5.8-9.6 10.9-15.3 17.2zm.7-367.4c139.8 0 255.5-116.5 255.5-257.2 0-139.9-115.1-254.9-255.6-255.4S284.7 272 284.4 413.3c-.3 140 115.9 256.2 256.3 256.3z"/><path d="M373.3 412.3c.2-92.4 74.7-166.6 167.1-166.4 93.3.1 167.3 74.8 166.9 168.2-.4 88.3-75.8 165.5-159.9 166-100.6.6-173.8-75.8-174.1-167.8z"/></svg>