<svg width="50" height="50" viewBox="0 0 50 50" fill="none" xmlns="http://www.w3.org/2000/svg">
<g clip-path="url(#clip0)">
<path d="M21.2871 1.11133H28.464V9.76384H21.2871V1.11133Z" fill="#326580"/>
<path d="M21.2871 13.094H28.464V17.5328H21.2871V13.094Z" fill="#326580"/>
<path d="M2.66406 13.094V28.9773C3.69641 29.1728 4.67407 29.6917 5.43686 30.5197L10.9346 36.4873C10.9487 36.5026 10.9637 36.5169 10.9781 36.532V35.3176C10.9781 32.7639 13.0557 30.6864 15.6093 30.6864H23.308C24.2639 30.7944 26.7949 29.3463 27.6677 28.9992C31.3732 27.2766 35.5907 27.3446 39.2386 29.186L41.4571 30.3129C42.0784 28.3178 43.8619 26.8725 45.9608 26.8725H47.2765V13.094H31.7932V19.198C31.7932 20.1176 31.0477 20.8631 30.128 20.8631H19.6209C18.7013 20.8631 17.9558 20.1176 17.9558 19.198V13.094H2.66406Z" fill="#326580"/>
<path d="M31.793 9.76384H47.2762V3.42098C47.2762 2.14534 46.4169 1.11133 45.3569 1.11133H31.793V9.76384Z" fill="#326580"/>
<path d="M45.9599 30.2029C45.1829 30.2029 44.5508 30.9488 44.5508 31.8656V46.7506C44.5508 47.6674 45.183 48.4133 45.9599 48.4133H48.5902C49.3673 48.4133 49.9995 47.6674 49.9995 46.7506V31.8656C49.9995 30.9488 49.3673 30.2029 48.5902 30.2029H45.9599Z" fill="#326580"/>
<path d="M17.9559 1.11133H4.25908C3.37821 1.11133 2.66406 1.97071 2.66406 3.0308V9.76384H17.9559V1.11133Z" fill="#326580"/>
<path d="M2.98732 32.7761C1.51605 31.3048 -0.988452 33.228 0.411034 34.9391L7.91116 44.0314C10.4574 47.1181 14.2126 48.8885 18.214 48.8885H26.697C29.8473 48.8885 32.9985 48.5185 36.0629 47.7888L41.2211 46.5552V33.9283L37.7339 32.1569C35.0055 30.7797 31.8466 30.7287 29.0714 32.019L26.1056 33.3979C25.2351 33.8026 24.2676 34.0165 23.3078 34.0165H15.6091C14.8917 34.0165 14.308 34.6 14.308 35.3175V37.84H29.2623C30.1819 37.84 30.9274 38.5855 30.9274 39.5051C30.9274 40.4247 30.1819 41.1702 29.2623 41.1702H14.02C12.0881 41.1936 9.86892 40.2886 8.48506 38.7437L2.98732 32.7761Z" fill="#326580"/>
</g>
<defs>
<clipPath id="clip0">
<rect width="50" height="50" fill="white"/>
</clipPath>
</defs>
</svg>
