<svg width="83" height="46" viewBox="0 0 83 46" fill="none" xmlns="http://www.w3.org/2000/svg">
<path d="M73.9791 40.6735C74.1773 40.6735 74.3756 40.6735 74.5738 40.6735C76.6224 40.6735 78.671 40.6735 80.6865 40.6735C81.2482 40.6735 81.4464 40.8995 81.4795 41.4482C81.5125 42.2552 81.3804 42.9977 80.7526 43.611C80.2239 44.1275 79.5961 44.3535 78.8692 44.3535C74.9703 44.3535 71.0384 44.3535 67.1395 44.3535C46.5217 44.3535 25.8708 44.3535 5.25299 44.3535C4.79041 44.3535 4.32783 44.3535 3.89829 44.3535C2.60968 44.2889 1.58539 43.2882 1.55235 42.0293C1.51931 40.9317 1.51931 40.6735 2.84097 40.7058C4.88953 40.7381 6.9381 40.7058 9.05275 40.7058C9.05275 40.5444 9.05275 40.4152 9.05275 40.2861C9.05275 36.9935 9.05275 33.7331 9.05275 30.4405C9.05275 21.6924 9.05275 12.9444 9.05275 4.22859C9.05275 2.77596 10.1101 1.71069 11.5969 1.71069C19.1304 1.71069 26.6308 1.71069 34.1642 1.71069C43.3167 1.71069 52.4691 1.71069 61.6547 1.71069C64.8927 1.71069 68.1308 1.71069 71.3688 1.71069C72.9548 1.71069 73.9791 2.74368 73.9791 4.29315C73.9791 12.7184 73.9791 21.1437 73.9791 29.5689C73.9791 33.1844 73.9791 36.8321 73.9791 40.4475C73.9461 40.4475 73.9461 40.5444 73.9791 40.6735ZM11.5309 38.2202C31.5209 38.2202 51.4779 38.2202 71.4349 38.2202C71.4349 26.8251 71.4349 15.4946 71.4349 4.13175C51.4449 4.13175 31.4879 4.13175 11.5309 4.13175C11.5309 15.5268 11.5309 26.8574 11.5309 38.2202ZM48.339 40.6735C43.7462 40.6735 39.2195 40.6735 34.6268 40.6735C34.6268 41.0609 34.759 41.416 35.1224 41.5451C35.5189 41.7065 35.9484 41.8679 36.3449 41.8679C39.7812 41.9002 43.1845 41.9002 46.6208 41.8679C46.9182 41.8679 47.2486 41.8033 47.5129 41.7065C48.0746 41.5774 48.339 41.19 48.339 40.6735Z" fill="#04AAD3"/>
<path d="M34.561 25.2756C34.7923 26.1794 35.0236 27.0187 35.2219 27.858C35.3871 27.858 35.4862 27.858 35.6184 27.858C39.8146 27.858 43.9778 27.858 48.1741 27.858C48.4384 27.858 48.7028 27.858 48.9671 27.858C49.5288 27.858 49.8922 28.2131 49.8922 28.6973C49.8922 29.1815 49.5288 29.5689 48.9671 29.5689C48.075 29.5689 47.2159 29.5689 46.3238 29.5689C42.4249 29.5689 38.559 29.5689 34.6602 29.5689C33.9993 29.5689 33.702 29.3107 33.5698 28.6973C33.1402 26.9219 32.6777 25.1465 32.2151 23.371C31.8516 21.9184 31.4882 20.498 31.1247 19.0454C30.7282 17.4314 30.2987 15.785 29.8691 14.1387C29.6379 13.2026 29.4066 12.2665 29.1422 11.3303C28.2171 11.3303 27.325 11.3303 26.3998 11.3303C26.1355 11.3303 25.8711 11.3303 25.5738 11.3303C25.0451 11.298 24.6816 10.9752 24.6816 10.4587C24.6816 9.94225 25.0451 9.58716 25.6068 9.58716C26.9945 9.58716 28.4153 9.58716 29.8031 9.58716C30.2656 9.58716 30.563 9.8454 30.6952 10.2651C30.9265 11.0721 31.1578 11.9114 31.323 12.7507C31.3891 13.0412 31.5212 13.0735 31.7525 13.0735C36.2792 13.0735 40.8059 13.0735 45.3325 13.0735C47.5463 13.0735 49.7601 13.1058 51.9739 13.0735C52.899 13.0412 53.4277 13.4931 53.1303 14.5584C52.5686 16.5921 52.073 18.658 51.5443 20.724C51.2139 21.9829 50.9165 23.2419 50.5861 24.5008C50.4209 25.1142 50.1566 25.3079 49.3966 25.3079C46.2907 25.3079 43.1848 25.3079 40.112 25.3079C38.3938 25.3079 36.6426 25.3079 34.9245 25.3079C34.8254 25.2756 34.7262 25.2756 34.561 25.2756ZM51.2139 14.8489C50.0244 14.8489 48.868 14.8489 47.7115 14.8489C47.5793 16.011 47.4141 17.1408 47.282 18.3029C48.2732 18.3029 49.2314 18.3029 50.1896 18.3029C50.2557 18.3029 50.3879 18.1738 50.4209 18.077C50.6852 17.0117 50.9496 15.9142 51.2139 14.8489ZM35.4201 14.8489C34.2306 14.8489 33.1072 14.8489 31.9177 14.8489C32.182 15.9787 32.4794 17.044 32.7437 18.1415C32.7768 18.2061 32.8759 18.3029 32.942 18.3029C33.9002 18.3029 34.8584 18.3029 35.8496 18.3029C35.7175 17.1086 35.5523 16.011 35.4201 14.8489ZM40.6406 18.2707C40.6406 17.1086 40.6406 15.9787 40.6406 14.8489C39.4842 14.8489 38.3608 14.8489 37.2043 14.8489C37.3695 16.011 37.5017 17.1408 37.6669 18.2707C38.6582 18.2707 39.6494 18.2707 40.6406 18.2707ZM45.8942 14.8489C44.7047 14.8489 43.6144 14.8489 42.491 14.8489C42.491 16.011 42.491 17.1408 42.491 18.2707C43.4822 18.2707 44.4735 18.2707 45.4647 18.2707C45.5969 17.1086 45.729 15.9787 45.8942 14.8489ZM34.1315 23.5001C34.9245 23.5001 35.7175 23.5001 36.5435 23.5001C36.4113 22.338 36.2461 21.2405 36.114 20.0784C35.1558 20.0784 34.2306 20.0784 33.2724 20.0784C33.5367 21.2082 33.8341 22.3703 34.1315 23.5001ZM47.0176 20.0784C46.8855 21.2405 46.7203 22.3703 46.5881 23.5001C47.4141 23.5001 48.2071 23.5001 49.0001 23.5001C49.2975 22.338 49.5949 21.2082 49.8592 20.0784C48.901 20.0784 47.9758 20.0784 47.0176 20.0784ZM37.8982 20.0784C38.0304 21.2405 38.1956 22.3703 38.3277 23.5001C39.1207 23.5001 39.8807 23.5001 40.6406 23.5001C40.6406 22.338 40.6406 21.2082 40.6406 20.0784C39.7155 20.0784 38.8234 20.0784 37.8982 20.0784ZM42.4579 23.5001C43.2509 23.5001 44.0109 23.5001 44.7708 23.5001C44.903 22.338 45.0682 21.2405 45.2004 20.0784C44.2422 20.0784 43.35 20.0784 42.4579 20.0784C42.4579 21.2082 42.4579 22.338 42.4579 23.5001Z" fill="#04AAD3"/>
<path d="M36.0811 33.9592C35.0568 33.9592 34.2969 33.1844 34.2969 32.216C34.2969 31.2476 35.0899 30.5051 36.0811 30.5051C37.0724 30.5051 37.8653 31.2799 37.8653 32.2806C37.8653 33.2167 37.0724 33.9592 36.0811 33.9592Z" fill="#04AAD3"/>
<path d="M47.0508 33.9592C46.0266 33.9592 45.2666 33.2168 45.2666 32.2161C45.2666 31.2476 46.0266 30.5052 47.0178 30.4729C48.0421 30.4729 48.802 31.2154 48.802 32.2161C48.802 33.2168 48.0421 33.9592 47.0508 33.9592Z" fill="#04AAD3"/>
</svg>
