<svg width="83" height="46" fill="none" xmlns="http://www.w3.org/2000/svg"><path d="M73.98 40.673h6.706c.562 0 .76.227.793.775.034.807-.099 1.55-.726 2.163-.53.517-1.157.742-1.884.742H3.898c-1.288-.064-2.313-1.065-2.346-2.324-.033-1.097-.033-1.356 1.289-1.323 2.049.032 4.097 0 6.212 0V4.23c0-1.453 1.057-2.518 2.544-2.518h59.772c1.586 0 2.61 1.033 2.61 2.582v36.153c-.033 0-.033.097 0 .226zM11.53 38.22h59.905V4.132H11.53V38.22zm36.809 2.453H34.627c0 .388.132.743.495.872.397.161.826.323 1.223.323 3.436.032 6.84.032 10.276 0 .297 0 .628-.065.892-.162.562-.129.826-.516.826-1.033z" fill="#04AAD3"/><path d="M34.561 25.276c.231.903.463 1.743.66 2.582h13.747c.562 0 .925.355.925.84 0 .483-.363.87-.925.87H34.66c-.66 0-.958-.257-1.09-.87a315.06 315.06 0 00-1.355-5.327c-.363-1.453-.727-2.873-1.09-4.326a355.71 355.71 0 00-1.256-4.906 87.351 87.351 0 00-.727-2.809h-3.568c-.529-.032-.892-.355-.892-.871 0-.517.363-.872.925-.872h4.196c.463 0 .76.258.892.678.232.807.463 1.646.628 2.486.066.29.198.322.43.322h13.58c2.213 0 4.427.033 6.64 0 .926-.032 1.455.42 1.157 1.485-.561 2.034-1.057 4.1-1.586 6.166-.33 1.259-.627 2.518-.958 3.777-.165.613-.43.807-1.19.807H34.925c-.099-.032-.198-.032-.363-.032zm16.653-10.427h-3.502c-.133 1.162-.298 2.292-.43 3.454h2.908c.066 0 .198-.13.23-.226.265-1.065.53-2.163.794-3.228zm-15.794 0h-3.502c.264 1.13.561 2.195.826 3.293.033.064.132.16.198.16h2.908c-.133-1.193-.298-2.291-.43-3.453zm5.22 3.422v-3.422h-3.436c.166 1.162.298 2.292.463 3.422h2.974zm5.254-3.422h-3.403v3.422h2.974c.132-1.162.264-2.292.43-3.422zM34.132 23.5h2.412c-.133-1.162-.298-2.26-.43-3.422h-2.842c.265 1.13.562 2.292.86 3.422zm12.886-3.422c-.133 1.163-.298 2.292-.43 3.422H49c.297-1.162.595-2.292.86-3.422h-2.842zm-9.12 0c.132 1.163.298 2.292.43 3.422h2.313v-3.422h-2.743zm4.56 3.422h2.313c.132-1.162.297-2.26.43-3.422h-2.743V23.5zm-6.377 10.46c-1.024 0-1.784-.776-1.784-1.744s.793-1.71 1.784-1.71 1.784.774 1.784 1.775c0 .936-.793 1.678-1.784 1.678zm10.969 0c-1.023 0-1.783-.743-1.783-1.744 0-.968.76-1.71 1.75-1.743 1.025 0 1.785.742 1.785 1.743 0 1-.76 1.743-1.751 1.743z" fill="#04AAD3"/></svg>