<svg width="50" height="50" fill="none" xmlns="http://www.w3.org/2000/svg"><g clip-path="url(#clip0)" fill="#326580"><path d="M21.287 1.111h7.177v8.653h-7.177V1.11zm0 11.983h7.177v4.439h-7.177v-4.439z"/><path d="M2.664 13.094v15.883a5.035 5.035 0 012.773 1.543l5.498 5.967.043.045v-1.214a4.636 4.636 0 014.631-4.632h7.699c.956.108 3.487-1.34 4.36-1.687a13.192 13.192 0 0111.57.187l2.22 1.127c.62-1.995 2.404-3.44 4.503-3.44h1.316v-13.78H31.792v6.104c0 .92-.745 1.665-1.665 1.665H19.621c-.92 0-1.665-.745-1.665-1.665v-6.104H2.664zm29.129-3.33h15.483V3.42c0-1.276-.86-2.31-1.92-2.31H31.794v8.653zM45.96 30.203c-.777 0-1.41.746-1.41 1.663V46.75c0 .916.633 1.662 1.41 1.662h2.63c.777 0 1.41-.746 1.41-1.662V31.866c0-.917-.633-1.663-1.41-1.663h-2.63zM17.956 1.111H4.259c-.88 0-1.595.86-1.595 1.92v6.733h15.292V1.11z"/><path d="M2.987 32.776c-1.471-1.471-3.975.452-2.576 2.163l7.5 9.092a13.313 13.313 0 0010.303 4.858h8.483c3.15 0 6.302-.37 9.366-1.1l5.158-1.234V33.928l-3.487-1.771a9.878 9.878 0 00-8.663-.138l-2.965 1.379a6.681 6.681 0 01-2.798.618h-7.699c-.717 0-1.301.584-1.301 1.302v2.522h14.954a1.665 1.665 0 010 3.33H14.02c-1.932.024-4.151-.881-5.535-2.426l-5.498-5.968z"/></g><defs><clipPath id="clip0"><path fill="#fff" d="M0 0h50v50H0z"/></clipPath></defs></svg>