<svg xmlns="http://www.w3.org/2000/svg" viewBox="0 0 1080 1080"><path fill="#969696" d="M33.2 569.7v-59.4c2.2-17.3 3.8-34.6 6.7-51.8 17.7-104.7 62.9-195.8 137.2-271.8C257 105.1 353.6 55.6 466.7 38.8c14.6-2.2 29.2-3.9 43.8-5.8h57.4c3.2.6 6.4 1.4 9.6 1.9 23.8 3.4 47.9 5.3 71.3 10.4C874 94.5 1038 290.6 1046.3 520.4c3.2 89.1-16 173.4-56.7 252.9-93.1 181.9-296 292.4-498.9 271.1-91.5-9.6-175.2-40.3-249.1-95.2-113.1-84.1-181-196-202.7-335.5-2.2-14.6-3.7-29.3-5.7-44zm824.6-376.8C731.2 84.1 585.1 42 422.6 85.9 233 137.1 115.6 264.1 78.3 457.2 49.1 608.7 92.7 742.9 195.6 860.7c3.4-4.4 5.4-7.5 8-10 37.5-37.6 74.9-75.3 112.8-112.6 7.1-7 11.3-13.4 8.8-24-1.7-6.9-1-14.4-.9-21.7.2-16 11.6-27.7 27.5-27.4 9.5.2 19 1.9 28.5 2.6 2.5.2 5.1-.5 8.6-.9-1.3-2.8-1.7-4-2.3-5.1-24.8-38.7-34.2-81.7-34.2-127.1 0-20.6 11.7-31.6 32.5-30.2 8.9.6 17.7 2.1 28 3.3-4.2-6.2-7.8-10.9-10.8-15.9-25.1-42.3-29.5-88.2-22.5-135.7 2.4-16.1 16-25.7 31.8-22 17.5 4.2 34.5 10.7 51.7 16.3 3.2 1 6.2 2.6 11 4.7-1.6-5.8-3.1-9.4-3.6-13.2-2.1-16.6-6.2-33.3-5.3-49.8 2.8-51.6 30.3-90.9 66.8-124.9 10.1-9.4 26.8-8.1 37.1 1.4 3.9 3.6 7.4 7.5 10.9 11.5 28.9 34 50.4 71.5 49.5 117.6-.4 19.4-5.5 38.6-8.1 56 16.3-5.5 35.2-11.9 54-18.1 13-4.3 24.7-2.6 33.3 6.6 49.3-49.4 98.6-98.7 149.1-149.2zM222.9 886.4C405.7 1057.2 708.6 1056 889.6 854c182.3-203.5 139.5-485.6-5.1-631.7-1.2 1-2.5 1.9-3.7 3-52.7 52.7-105.5 105.4-158 158.4-3 3.1-4.8 8.6-5 13-1.5 34.4-7.7 67.5-26.6 97-2.9 4.5-6 8.9-9.4 14.1 11.5-1.3 21.5-3.1 31.7-3.4 16-.5 28.3 10.8 28.4 26.6.2 41.5-7 81.4-26.9 118.3-3.4 6.3-7.2 12.3-11.2 19.2 12.6-1.3 23.9-3 35.4-3.5 19.6-1 31 10.3 30.9 29.8-.2 32-5.2 63.2-16.7 93-28 72.7-78.8 119.2-157.2 131.2-21.6 3.3-44.1 1.4-66.2 1.8-68.6 1.3-123.1-26.5-162.3-82-14-19.8-23.1-43.1-33.6-63.2-35.8 35.5-73.3 73-111.2 110.8zM733 702.2c-52.4 5.8-96.7 23.7-128.5 65.7-25.9 34.2-36.9 73.3-38.5 116.8 46.5-.7 84.8-16.4 116.1-49.1 35.4-37.2 46.8-83.2 50.9-133.4zM529.1 883.6c-2.4-15.6-3.5-29.8-6.8-43.5C507.1 776 470 731.1 406 710.6c-5.6-1.8-9.7-1.5-13.9 3.2-7 7.8-15 14.9-22.1 22.6-1.9 2.1-3.5 5.9-3 8.4 13 60.6 44.6 106.5 104.1 129.6 17.8 7 36.5 10.5 58 9.2zm174.7-341.8c-44.9 6.4-82.7 24.1-108.6 61.9-20.6 30.1-29.9 63.6-29.4 100 68.9 6.8 147.6-85.9 138-161.9zM544.9 397.3c64.5-64.7 62.6-133.6 3.9-194.9-62.3 62.9-64.1 128.8-3.9 194.9zm-130.6-25c-5.1 66.1 10.6 102.8 52.2 137 12.7 10.4 28.2 17.7 43.2 24.8 9.3 4.4 18.9-3.5 18.8-14-.7-43.5-13.2-82.4-46-112.7-19.2-17.9-42.1-28.8-68.2-35.1zM441 667.6c25.4 19.5 52 37.1 87.9 37.1-.7-36.3-9-68.6-27.7-97.1-20.3 20.2-39.9 39.7-60.2 60zm-52.2-125.5c1.3 34.4 8.6 66.1 25.6 94.7 20.2-20.3 39.8-39.9 59.5-59.6-16.1-17-57.6-34.7-85.1-35.1zm288.5-168.5c-57.1 10.9-99.7 59-106.3 106.3l106.3-106.3zm-1.5 60.9C642.3 468 608 502.3 574.4 535.8c28.3 3.4 97.5-53.1 101.4-101.3zM547 793.7c9.8-17.1 19.7-34.3 30.1-52.3h-60.4c10.6 18.3 20.5 35.3 30.3 52.3zm.1-179.1c7.6-13.2 15.2-26.4 23.5-40.9-12.2 0-23.5-.4-34.7.2-5 .3-10.6 2.4-6.8 9.4 5.8 10.7 12.1 21 18 31.3z"/></svg>