<svg width="65" height="62" fill="none" xmlns="http://www.w3.org/2000/svg"><path d="M27.535 0h9.283v11.192h-9.283V0zm0 15.5h9.283v5.741h-9.283V15.5z" fill="#969696"/><path d="M3.445 15.5v20.545c1.336.252 2.6.924 3.587 1.995l7.111 7.719.056.058v-1.571a5.997 5.997 0 015.99-5.99h9.96c1.235.139 4.51-1.734 5.638-2.183a17.064 17.064 0 0114.967.242l2.87 1.457c.804-2.58 3.11-4.45 5.825-4.45h1.702V15.5H41.124v7.895c0 1.19-.965 2.154-2.154 2.154H25.379a2.154 2.154 0 01-2.154-2.154V15.5H3.445zm37.678-4.308h20.028V2.988C61.15 1.338 60.038 0 58.668 0H41.123v11.192zM59.45 37.63c-1.005 0-1.823.965-1.823 2.15v19.254c0 1.186.818 2.151 1.823 2.151h3.402c1.005 0 1.823-.965 1.823-2.15V39.78c0-1.186-.818-2.151-1.823-2.151H59.45zM23.225 0H5.508C4.37 0 3.445 1.112 3.445 2.483v8.709h19.78V0z" fill="#969696"/><path d="M3.864 40.959c-1.903-1.904-5.143.584-3.332 2.797l9.701 11.761A17.22 17.22 0 0023.56 61.8h10.973c4.074 0 8.15-.479 12.114-1.423l6.672-1.595V42.449l-4.51-2.291a12.777 12.777 0 00-11.205-.179l-3.837 1.784a8.643 8.643 0 01-3.619.8H20.19c-.928 0-1.683.755-1.683 1.683v3.263h19.344a2.154 2.154 0 110 4.307H18.135c-2.499.03-5.37-1.14-7.16-3.138l-7.11-7.72z" fill="#969696"/></svg>