<svg width="71" height="72" fill="none" xmlns="http://www.w3.org/2000/svg"><path d="M52.476.021c0 .148-.02.318-.02.466V23.23h-5.263V5.691H5.304v49.423h17.682v5.31c-.126 0-.253.022-.379.022H.357c-.125 0-.23-.021-.357-.042V0c17.492.021 34.984.021 52.476.021z" fill="#969696"/><path d="M34.417 52.808h-4.42c-.317 0-.422-.063-.422-.402.021-1.29 0-2.602 0-3.893 0-.105.021-.211.021-.36h4.694c.4-1.332.695-2.665 1.2-3.892.505-1.227 1.2-2.37 1.831-3.597-1.052-1.037-2.189-2.158-3.346-3.28 1.157-1.142 2.252-2.2 3.325-3.258 1.074 1.08 2.21 2.2 3.368 3.343 2.19-1.629 4.61-2.644 7.304-3.046v-4.845h4.61v4.845c2.695.402 5.115 1.396 7.304 3.025l3.368-3.385c1.116 1.121 2.19 2.2 3.305 3.3-1.115 1.1-2.252 2.222-3.41 3.343 1.642 2.243 2.652 4.697 3.052 7.426h4.8v4.655h-4.8a16.25 16.25 0 01-3.03 7.405c1.136 1.121 2.294 2.243 3.43 3.385-1.136 1.121-2.21 2.2-3.305 3.258-1.094-1.1-2.23-2.221-3.367-3.385a16.059 16.059 0 01-7.326 3.047v4.845h-4.589v-4.74c-1.262-.38-2.525-.655-3.683-1.12-1.179-.487-2.252-1.164-3.431-1.8a728.797 728.797 0 01-3.558 3.153c-1.094-1.1-2.168-2.158-3.325-3.321.526-.508 1.094-1.037 1.641-1.566.548-.529 1.074-1.079 1.621-1.63.148-.126.169-.232.042-.401-1.431-1.968-2.336-4.168-2.778-6.559-.021-.084-.021-.19-.042-.296a.664.664 0 01-.084-.254zM50.33 38.866c-6.315-.022-11.493 5.204-11.514 11.615 0 6.41 5.094 11.573 11.45 11.615 6.295.042 11.515-5.162 11.536-11.552.042-6.41-5.094-11.657-11.472-11.678zm-7.073-19.613H9.241v-5.31h33.616c.337 0 .421.084.421.423-.02 1.502 0 2.983 0 4.485-.02.127-.02.233-.02.402zM9.241 27.928H35.07v5.289H9.24v-5.29zM27.596 41.87v5.268H9.22V41.87h18.376z" fill="#969696"/></svg>