<svg width="80" height="63" fill="none" xmlns="http://www.w3.org/2000/svg"><path d="M80 37.59v5.327c-.128.922-.23 1.845-.358 2.767-.793 5.558-2.712 10.707-5.627 15.523C73.272 62.437 72.3 63 70.894 63H9.12c-1.381 0-2.353-.563-3.07-1.742-5.346-8.684-7.162-18.085-5.397-28.1 1.714-9.709 6.37-17.829 14.043-24.079C20.58 4.289 27.332 1.317 34.904.344a38.948 38.948 0 0111.05.103c4.502.666 8.774 2.126 12.79 4.303 11.74 6.353 18.493 16.266 20.796 29.33.204 1.153.306 2.33.46 3.51zM40.429 57.235c3.555-.179 6.625-2.535 7.7-5.865 1.125-3.484.05-7.173-2.763-9.402-.46-.358-.486-.64-.358-1.178a1774.07 1774.07 0 004.143-15.677c.154-.64.282-1.357.154-1.972-.256-1.383-1.356-2.203-2.712-2.229-1.33-.025-2.43.897-2.813 2.357a3536.94 3536.94 0 00-4.119 15.677c-.204.794-.486 1.178-1.406 1.383-4.733 1-7.188 5.046-6.753 9.222.435 4.15 3.58 7.761 8.927 7.684zM68.54 45.761c3.147 0 5.68-2.46 5.705-5.585.025-3.253-2.43-5.789-5.653-5.814-3.121-.026-5.756 2.561-5.73 5.686.026 3.202 2.507 5.713 5.678 5.713zm-57.067 0c3.12 0 5.653-2.51 5.679-5.636.025-3.202-2.584-5.815-5.73-5.763-3.197.05-5.653 2.536-5.653 5.738.026 3.201 2.507 5.686 5.704 5.66zm14.222-25.719c-.025-3.201-2.532-5.712-5.678-5.712a5.692 5.692 0 00-5.679 5.713c.026 3.227 2.481 5.686 5.679 5.686 3.197 0 5.704-2.51 5.678-5.686zm39.98.077c.026-3.202-2.43-5.712-5.627-5.763-3.12-.077-5.73 2.51-5.73 5.66 0 3.229 2.43 5.713 5.628 5.739 3.197 0 5.704-2.46 5.73-5.636zm-19.977-8.607c0-3.227-2.455-5.712-5.653-5.712-3.197-.025-5.704 2.485-5.704 5.661 0 3.228 2.456 5.687 5.679 5.687 3.171-.026 5.653-2.485 5.678-5.636z" fill="#969696"/></svg>