<svg width="82" height="82" fill="none" xmlns="http://www.w3.org/2000/svg"><g clip-path="url(#clip0)" fill="#969696"><path d="M57.816 33.793h-9.609v14.172l-4.805-3.042v-20.74h9.61V0H28.988v24.184h9.61v20.74l-4.805 3.04v-14.17h-9.61v-9.61H0v24.024h24.184v-9.61h4.804v12.41l-2.401 1.52L41 62.134l14.413-9.609-2.401-1.52V38.598h4.804v9.609H82V24.184H57.816v9.609zM38.598 9.77h4.804v4.804h-4.804V9.77zM14.574 38.598H9.77v-4.805h4.804v4.805zm52.852-4.805h4.805v4.805h-4.805v-4.805zM43.402 66.31V82l14.414-9.61V56.7l-14.414 9.61zM24.184 56.7v15.69L38.598 82V66.31L24.184 56.7z"/></g><defs><clipPath id="clip0"><path fill="#fff" d="M0 0h82v82H0z"/></clipPath></defs></svg>