<svg width="43" height="24" fill="none" xmlns="http://www.w3.org/2000/svg"><path d="M38.327 21.221h3.475c.29 0 .393.118.41.404.017.421-.051.809-.376 1.129-.274.27-.6.387-.976.387H2.02c-.668-.034-1.199-.556-1.216-1.213-.017-.572-.017-.707.668-.69 1.061.017 2.123 0 3.218 0V2.206c0-.758.548-1.313 1.318-1.313h30.966c.822 0 1.353.539 1.353 1.347v18.863c-.017 0-.017.05 0 .118zm-32.353-1.28h31.035V2.156H5.974V19.94zm19.07 1.28h-7.105c0 .202.069.387.257.455.205.084.428.168.633.168 1.78.017 3.544.017 5.324 0 .154 0 .325-.034.462-.084.291-.067.428-.27.428-.539z" fill="#969696"/><path d="M17.905 13.187c.12.472.24.91.342 1.348h7.121c.292 0 .48.185.48.438 0 .252-.188.454-.48.454h-7.412c-.342 0-.496-.134-.564-.454-.223-.927-.463-1.853-.702-2.78-.189-.757-.377-1.498-.565-2.256-.206-.842-.428-1.701-.65-2.56a46.07 46.07 0 00-.377-1.465h-1.849c-.274-.017-.462-.186-.462-.455 0-.27.188-.455.48-.455h2.173c.24 0 .394.135.462.354.12.42.24.859.326 1.297.034.151.102.168.222.168h7.035c1.147 0 2.294.017 3.441 0 .48-.017.753.219.6.775-.292 1.06-.548 2.139-.822 3.217-.172.656-.326 1.313-.497 1.97-.085.32-.222.421-.616.421h-7.498c-.05-.017-.102-.017-.188-.017zm8.627-5.44h-1.814c-.068.607-.154 1.196-.223 1.802h1.507c.034 0 .103-.067.12-.117.137-.556.274-1.129.41-1.685zm-8.182 0h-1.814c.137.59.29 1.146.428 1.718.017.034.068.084.102.084h1.507c-.069-.623-.154-1.195-.223-1.802zm2.705 1.786V7.747h-1.78c.085.607.154 1.196.24 1.786h1.54zm2.722-1.786h-1.764v1.786h1.541a56.91 56.91 0 01.223-1.786zm-6.094 4.514h1.25c-.07-.606-.155-1.179-.223-1.785h-1.473c.138.59.292 1.195.446 1.785zm6.676-1.785c-.069.606-.155 1.195-.223 1.785h1.25c.154-.606.308-1.196.445-1.785h-1.472zm-4.725 0c.069.606.154 1.195.223 1.785h1.198v-1.785h-1.421zm2.362 1.785h1.199c.068-.606.154-1.179.222-1.785h-1.42v1.785zm-3.303 5.457a.903.903 0 01-.925-.91c0-.505.411-.892.925-.892.513 0 .924.404.924.926 0 .489-.41.876-.924.876zm5.683 0c-.53 0-.925-.387-.925-.91 0-.505.394-.892.908-.909.53 0 .924.387.924.91a.889.889 0 01-.907.909z" fill="#969696"/></svg>