<svg width="77" height="79" fill="none" xmlns="http://www.w3.org/2000/svg"><path d="M24.714 4.708c.938-2.119 2.493-3.34 4.84-3.296 2.214.044 3.68 1.28 4.576 3.296h18.406c2.743 0 4.958 2.236 4.958 4.987V26.23H41.258c-2.64 0-4.84.957-6.571 2.957-1.217 1.413-1.892 3.075-1.936 4.943-.059 2.575-.03 5.135-.03 7.71V72.6H6.249c-2.67 0-4.898-2.25-4.898-4.942V9.636c0-2.692 2.244-4.928 4.957-4.928h18.407zm3.05 49.65c-.088-5.443-4.326-9.797-9.753-9.87-5.603-.074-10.105 4.398-10.061 9.974.044 5.487 4.37 9.812 9.738 9.87 5.618.074 10.076-4.413 10.076-9.973zM34.1 8.048c-.821 1.912-2.214 3.118-4.282 3.265-2.45.177-4.122-1.06-5.104-3.266h-8.522c0 1.662-.014 3.295 0 4.928.015 1.883 1.452 3.325 3.344 3.325h19.8c1.379 0 2.626-.868 3.066-2.177.132-.383.205-.81.205-1.206.03-1.619.015-3.237.015-4.87H34.1zM6.322 37.807h23.056v-3.295h-3.271v-6.561h-3.315v6.546h-3.314v-9.871h-3.286v9.871h-3.314V29.6H9.563v4.958H6.307c.015 1.089.015 2.148.015 3.251zM31.079 6.4c.015-.882-.719-1.662-1.599-1.691-.91-.03-1.701.72-1.716 1.618-.014.897.719 1.662 1.599 1.692.91.044 1.701-.706 1.716-1.619z" fill="#969696"/><path d="M75.65 53.52v19.05c0 2.795-2.2 5.017-4.971 5.017h-29.67c-2.773 0-4.973-2.222-4.973-5.017V34.586c0-2.824 2.2-5.016 5.03-5.016h29.569c2.845 0 5.03 2.206 5.03 5.075-.014 6.282-.014 12.578-.014 18.875zM55.866 36.175H44.47c-1.158 0-1.848.692-1.848 1.869v6.208c0 1.177.675 1.868 1.834 1.868h22.748c1.173 0 1.833-.677 1.848-1.868v-6.105c0-1.354-.63-1.972-1.995-1.972h-11.19zm-9.988 18.228c.572 0 1.13.014 1.702 0 .763-.015 1.393-.442 1.54-1.192.132-.677.102-1.398.102-2.104 0-.956-.703-1.662-1.642-1.677-1.1-.015-2.2-.015-3.3 0-.954.015-1.643.721-1.658 1.677-.014.53-.014 1.074 0 1.604.015.956.704 1.662 1.658 1.677.542.03 1.07.015 1.598.015zm9.944 0c.543 0 1.1.014 1.643 0 .792-.015 1.423-.427 1.57-1.221.132-.677.102-1.398.102-2.104 0-.927-.704-1.633-1.628-1.648-1.114-.015-2.23-.015-3.344 0-.763.015-1.379.441-1.51 1.206-.133.677-.103 1.398-.103 2.104 0 .927.704 1.633 1.628 1.648.542.03 1.085.015 1.642.015zm9.974 11.548v.044h-1.643c-.865.015-1.57.544-1.672 1.383a9.379 9.379 0 000 2.221c.088.795.778 1.354 1.57 1.369 1.129.014 2.273.029 3.402 0 .895-.015 1.57-.736 1.599-1.633.014-.574.014-1.133 0-1.707-.015-.75-.455-1.383-1.203-1.53-.674-.132-1.364-.103-2.053-.147zm-19.873-3.266c.542 0 1.1.015 1.642 0 .953-.015 1.643-.72 1.672-1.662.015-.53.015-1.074 0-1.604-.014-.97-.718-1.692-1.686-1.692a125.13 125.13 0 00-3.242 0 1.67 1.67 0 00-1.672 1.663c-.015.53-.015 1.074 0 1.603.015.986.704 1.677 1.687 1.692.528.015 1.056 0 1.599 0zm9.914-4.972c-.542 0-1.1-.015-1.642 0-.94.03-1.643.735-1.658 1.677-.014.53-.014 1.074 0 1.603.015.956.704 1.663 1.657 1.677 1.1.015 2.2.015 3.3 0 .954-.014 1.628-.706 1.658-1.677.014-.53.014-1.074 0-1.603-.015-.942-.719-1.663-1.658-1.692-.557 0-1.1.015-1.657.015zm9.944 0H64.08c-.763.03-1.408.441-1.51 1.206a9.248 9.248 0 000 2.545c.102.75.762 1.206 1.51 1.206 1.115.015 2.23.015 3.344 0 .91-.014 1.613-.735 1.628-1.647.014-.53.014-1.074 0-1.604-.015-1-.719-1.706-1.73-1.706h-1.54zm-.073-3.31c.572 0 1.13.014 1.701 0 .924-.03 1.614-.721 1.643-1.648.014-.544.014-1.103 0-1.648-.03-.956-.719-1.647-1.672-1.662a119.12 119.12 0 00-3.242 0c-.968.015-1.672.72-1.7 1.692-.015.53-.015 1.074 0 1.603.014.942.718 1.648 1.671 1.677.543 0 1.07-.014 1.599-.014zm-19.83 16.565c.572 0 1.13.014 1.702 0 .938-.015 1.642-.736 1.657-1.678.015-.53.015-1.073 0-1.603-.014-.956-.704-1.677-1.642-1.692-1.1-.015-2.2-.015-3.3 0-.94.015-1.643.721-1.658 1.677a29.36 29.36 0 000 1.604c.015.941.719 1.662 1.657 1.692.514.014 1.056 0 1.584 0zm9.915 0h1.643c.968-.015 1.686-.721 1.701-1.692.015-.515.015-1.03 0-1.545-.015-1.015-.704-1.721-1.716-1.736a113.57 113.57 0 00-3.197 0c-.983.015-1.687.721-1.701 1.692-.015.53-.015 1.074 0 1.603.014.942.718 1.663 1.657 1.678.557.014 1.085 0 1.613 0zM17.85 47.827v6.546h6.541c.264 1.619-.91 4.473-3.285 5.797-2.45 1.368-5.603 1.044-7.686-.869-2.156-1.986-2.786-5.104-1.525-7.767 1.188-2.472 3.784-3.854 5.955-3.707z" fill="#969696"/></svg>