<svg xmlns="http://www.w3.org/2000/svg" viewBox="0 0 1080 1080"><g fill="#969696"><path d="M304.1 1027c-29.2-21.6-35.9-50.7-14.6-69.4 8.1-7.1 19.8-10.1 30.8-15.5-50.8-41.7-87.4-93.4-104.4-157.3-6.4-24.1-9.8-49.4-11.3-74.4-2.3-36 13.4-50.9 50.3-51 98.1-.2 196.2-.6 294.2.4 18.7.2 27-4.2 32.6-23.4C607.8 546.6 644 461.6 708.1 391c11.4-12.5 6.9-38-6.7-46.7-15-9.6-25.6-35.5-19-51.9 12.1-30 25.3-59.6 38.9-88.9 6.9-14.8 19.3-18.8 34.3-12.2 79.1 34.5 158.1 69.1 237 104 16.6 7.3 21.5 19.9 13.9 37.1-24 54.6-47.6 109.5-71.8 164-9.2 20.7-19.8 24.1-41.9 14.4-52-22.7-103.8-45.7-157.1-69.2C701 510 687.3 582 682.5 659.3c31.1 0 61.8-.1 92.6 0 42.2.1 55.7 13.9 53.7 56.4-3.9 84.9-38.9 155.2-100.7 212.8-5.1 4.8-10.4 9.5-17 15.6 22.8 4.3 40.7 11.8 44.4 36.3 3.5 23.3-10.2 35.7-27.2 46.6H304.1z"/><path d="M343.1 53c6.3 7.5 14.2 14.2 18.5 22.8 10.6 21.2 19.5 43.2 29 65 14.8 33.9 10.2 45.6-15.6 72.1-7.3 7.5-9 32-2.6 39.5 63.3 73.4 96 161.5 124.5 251.7 11 34.7-5.7 66.4-37 73.1-35.2 7.6-61.5-12.6-67.7-51.3-9-56.7-17.8-113.5-28.2-169.9-3.1-16.6-11.5-32.1-18.1-49.8-51.6 22.7-100.8 44.4-150.1 66.1-33.9 14.9-40.7 12.2-55.7-22-21.3-48.7-42.7-97.4-63.9-146.2-11.5-26.4-8-35.5 18.3-47.1 72.4-31.9 144.8-63.5 217.2-95.4 5-2.2 9.4-5.7 14-8.5 5.9-.1 11.6-.1 17.4-.1z"/></g></svg>