<svg width="80" height="78" fill="none" xmlns="http://www.w3.org/2000/svg"><path d="M32.266 0h15.329c1.052.425 1.588 1.216 1.827 2.278.317 1.41.814 2.78.992 4.21.239 1.814 1.073 2.953 2.959 3.281.338.058.774.078 1.052-.077 1.847-1.023 3.674-2.124 5.5-3.186 1.43-.83 2.383-.714 3.575.445 3.137 3.05 6.254 6.1 9.391 9.151 1.112 1.081 1.232 1.989.398 3.34-.775 1.255-1.45 2.587-2.343 3.765-1.092 1.41-1.39 2.742-.358 4.286.258.386.437.676.914.792 2.005.444 3.99.965 5.996 1.39 1.132.251 2.025.734 2.502 1.796v14.905c-.457 1.042-1.31 1.564-2.422 1.776-1.609.328-3.177.81-4.786 1.081-1.35.232-2.323.695-2.6 2.105-.04.212-.16.424-.279.617-.238.367-.159.676.08 1.043a818.798 818.798 0 013.375 5.464c.775 1.255.655 2.181-.397 3.205-3.177 3.108-6.354 6.217-9.55 9.306-1.073 1.042-2.046 1.139-3.376.386-1.589-.927-3.217-1.796-4.726-2.8-.933-.617-1.708-.637-2.76-.212-1.072.425-1.628.965-1.827 2.105-.298 1.64-.814 3.262-1.23 4.884-.04 0-.08-.02-.12-.02v-.752c0-5.464.02-10.947-.02-16.411 0-.637.199-.965.774-1.294 6.394-3.61 10.127-8.958 10.842-16.16.874-8.746-4.289-17.144-12.609-20.62-2.085-.869-3.673.155-3.673 2.337 0 4.865 0 9.73.02 14.596 0 .521-.159.83-.596 1.1a83.297 83.297 0 00-3.514 2.278c-.417.29-.715.329-1.152.02a69.96 69.96 0 00-3.574-2.317c-.437-.27-.556-.56-.556-1.043.02-4.865.02-9.73.02-14.596 0-2.24-1.589-3.244-3.713-2.355-8.598 3.649-13.8 12.491-12.49 21.488.993 6.835 4.706 11.951 10.862 15.35.496.27.675.56.675 1.12-.02 5.54-.02 11.1-.02 16.642v.618c-.517-1.525-.993-3.05-1.271-4.614-.238-1.255-.695-2.163-2.105-2.395-.258-.038-.476-.25-.715-.27-.317-.038-.714-.077-.973.077-1.886 1.062-3.752 2.182-5.639 3.263-1.27.734-2.283.637-3.316-.367-3.216-3.108-6.413-6.236-9.61-9.363-1.032-1.005-1.152-1.931-.417-3.148.834-1.37 1.589-2.8 2.542-4.073.973-1.294 1.27-2.51.297-3.881a.679.679 0 01-.079-.212c-.1-.483-.437-.676-.913-.792-2.145-.502-4.29-1.004-6.434-1.525C.635 47.688 0 46.917 0 45.545V32.243c0-1.332.655-2.124 1.986-2.452 1.747-.425 3.474-.908 5.222-1.216 1.35-.232 2.323-.715 2.581-2.124.04-.213.159-.425.278-.618.238-.367.159-.676-.08-1.043-1.131-1.815-2.263-3.63-3.375-5.464-.774-1.274-.655-2.181.397-3.205 3.157-3.089 6.334-6.178 9.491-9.248 1.093-1.062 2.105-1.197 3.436-.424 1.29.753 2.66 1.409 3.871 2.278 1.45 1.062 2.82 1.351 4.428.386.397-.251.695-.444.794-.907.477-1.99 1.013-3.978 1.47-5.966.198-1.024.715-1.815 1.767-2.24z" fill="#969696"/><path d="M49.301 25.89c5.083 3.186 8.32 10.08 6.553 16.952-1.768 6.912-8.34 11.97-15.667 12.029-7.644.077-14.256-4.77-16.163-11.894-1.866-7.027 1.31-13.765 6.513-17.105v.849c0 3.92.02 7.858-.02 11.777 0 1.12.437 1.931 1.39 2.53a274.266 274.266 0 016.374 4.131c1.112.734 2.144.753 3.256.02a356.62 356.62 0 016.374-4.132c.993-.618 1.43-1.448 1.41-2.607-.02-4.15-.02-8.302-.02-12.55zM44.58 77.808h-9.273V58.945c3.077.656 6.155.656 9.272 0v18.863z" fill="#969696"/></svg>