<svg xmlns="http://www.w3.org/2000/svg" viewBox="0 0 1080 1080"><g fill="#969696"><path d="M38.9 1022.5V175.9c3.5-4.4 6.4-9.4 10.6-13 45.4-38.2 90.8-76.4 136.8-113.8 6.9-5.6 17.2-9.7 25.9-9.7 218-.5 436-.5 654 0 9.2 0 20.2 3.9 27.4 9.7 43.8 35.3 86.8 71.6 129.7 107.9 6.6 5.5 11.9 12.6 17.7 19v846.6c-6.7 13.9-17.8 18.5-33 18.5-312.1-.3-624.1-.3-936.2 0-15.1-.1-26.2-4.6-32.9-18.6zm953.7-30.2v-785H87.9v785h904.7zM131.3 157h384.1V87.6c-2.4-.3-4.1-.8-5.8-.8-95.8 0-191.6-.1-287.4.1-3.7 0-8.1 1.1-10.9 3.4-26 21.4-51.8 43.2-80 66.7zm432.9-.1h384.6c-26.3-22-50.3-42.6-75-62.2-5.6-4.4-14-7.6-21.1-7.6-91.4-.5-182.9-.3-274.3-.3h-14.2v70.1z"/><path d="M541 301.6c26.3 0 52.7-.2 79 .1 37.3.4 62.9 24.9 62.8 59.7-.2 34.3-26.5 59.3-63.5 59.4-54 .2-107.9.4-161.9-.1-31-.3-56.1-22.3-59.7-50.8-3.8-30.4 13.5-57.8 42.3-65.8 7.1-2 14.7-2.3 22.1-2.3 26.3-.3 52.6-.2 78.9-.2zm-1 47.8h-79.1c-9 0-17.4 3.5-14.9 13.2 1.2 4.7 10.9 10.2 16.9 10.3 51.4.8 102.8.4 154.2.5 8.8 0 17.2-2.4 17.4-11.9.2-10.9-9-12.2-18.1-12.1-25.4 0-50.9-.1-76.4 0zm72.1 571.2v-46h308.8v46H612.1zm261.7-166.9V849h-47.1v-94.2h-43.1c23.1-23.2 45.7-45.9 67.6-68 20.8 20.7 43.3 43.2 67.1 66.9h-44.5zm-126.4.4h-40.1v94.8h-48.2v-94.3h-41l64.8-64.8c19.6 19.6 42.4 42.2 64.5 64.3z"/></g></svg>