<svg width="23" height="31" fill="none" xmlns="http://www.w3.org/2000/svg"><path d="M22.177 14.173v.308c-.237 1.161-.9 1.896-2.038 2.322-.924.332-1.28 1.162-1.374 2.11-.166 1.848-1.375 2.725-3.176 2.275-1.067-.26-1.896.047-2.584.83-1.232 1.421-2.725 1.421-3.981-.048-.687-.782-1.493-1.066-2.512-.806-1.849.45-3.058-.403-3.224-2.322-.094-1.114-.64-1.825-1.659-2.228-1.611-.64-2.085-2.18-1.16-3.65.592-.972.592-1.896 0-2.868-.925-1.47-.427-3.01 1.16-3.65 1.043-.402 1.588-1.113 1.707-2.227.213-1.991 1.327-2.773 3.294-2.3.9.214 1.635-.047 2.3-.64C9.426.83 9.947.428 10.445 0h1.256c.498.427 1.02.83 1.517 1.28.663.592 1.398.877 2.299.663.426-.094.877-.19 1.303-.142 1.162.142 1.896.996 1.991 2.252.071 1.019.403 1.872 1.398 2.251 1.067.403 1.73 1.09 2.015 2.18v.475l-.711 1.422c-.38.734-.38 1.493-.024 2.227a10.4 10.4 0 00.687 1.565zM11.015 18.13c3.626.023 6.588-2.915 6.612-6.542C17.627 7.962 14.688 5 11.062 5c-3.626-.024-6.589 2.939-6.612 6.565a6.55 6.55 0 006.565 6.565zm.735 7.158c1.232-.308 2.204-.853 2.939-1.777.07-.095.331-.143.474-.095 1.208.308 2.37.142 3.53-.45.57 1.659 1.162 3.27 1.684 4.905.07.237-.048.664-.237.83-.19.166-.593.166-.854.095-.592-.166-1.16-.45-1.753-.688-1.114-.45-1.162-.426-1.754.64-.285.522-.545 1.067-.9 1.564-.167.237-.522.474-.807.474-.237 0-.568-.308-.663-.545-.545-1.635-1.067-3.247-1.66-4.953zm-8.367-2.323c1.161.57 2.251.759 3.436.474.19-.047.45.024.617.119.9.64 1.777 1.28 2.796 2.038-.355 1.067-.782 2.394-1.28 3.697-.213.546-.165 1.375-.971 1.47-.877.095-.972-.759-1.28-1.28-1.232-2.086-.83-1.967-3.057-1.067-.285.119-.57.285-.877.332-.308.048-.711.048-.9-.118-.19-.142-.262-.593-.19-.83.545-1.611 1.113-3.2 1.706-4.835z" fill="#969696"/><path d="M8.384 14.173c.711-1.28.047-2.252-1.09-3.152-.427-.332-.214-.996.308-.972 1.588.024 2.465-.735 2.962-2.157.166-.45.617-.403.972-.047.024.047.071.07.095.118.38 1.399 1.28 2.062 2.773 2.062.616 0 .758.593.332 1.09-.024.024-.024.048-.048.048-1.209.758-1.47 1.801-1.043 3.128.214.64-.308.972-.924.711-.024 0-.047-.024-.071-.024-1.066-.853-2.11-.829-3.223-.023-.593.403-1.067.07-1.043-.782z" fill="#969696"/></svg>