<svg width="33" height="37" fill="none" xmlns="http://www.w3.org/2000/svg"><path d="M16.884 8.3v4.66c0 .108 0 .189.133.189 1.657.188 2.966.97 3.927 2.343.027.027.027.054.054.081l.026.027c1.39-.781 2.779-1.535 4.195-2.317-.615-1.239-.668-2.478-.107-3.718.427-.97 1.175-1.67 2.137-2.101a4.095 4.095 0 015.21 1.778c1.041 1.832.533 4.176-1.123 5.415-1.683 1.267-4.22 1.105-5.743-.781-.321.189-.668.377-1.016.566-1.042.566-2.083 1.158-3.125 1.724-.08.054-.134.08-.08.215.614 1.428.587 2.83 0 4.257-.027.054-.027.081-.054.135l4.248 2.344c.962-1.159 2.19-1.725 3.687-1.563.988.108 1.87.512 2.564 1.24a4.208 4.208 0 01.294 5.468c-1.256 1.617-3.526 2.075-5.29 1.078a4.211 4.211 0 01-1.63-5.604 324.488 324.488 0 00-4.193-2.317 15.96 15.96 0 01-.561.7c-.348.405-.775.728-1.23.998a5.892 5.892 0 01-1.602.646c-.187.027-.4.054-.614.081-.08 0-.134.054-.134.135v4.688c1.389.188 2.458.862 3.179 2.074.534.916.668 1.94.454 2.964-.374 1.966-2.27 3.421-4.22 3.286-2.165-.134-3.794-1.724-3.955-3.852-.187-2.21 1.47-4.284 3.794-4.472V23.87c-1.763-.162-3.126-.997-4.114-2.479A324.09 324.09 0 017.8 23.71a4.208 4.208 0 01-1.95 5.766c-1.87.862-4.168.162-5.237-1.617a4.193 4.193 0 011.042-5.523c1.683-1.266 4.221-1.131 5.744.782l4.248-2.344c-.642-1.509-.668-3.017 0-4.526A335.667 335.667 0 017.4 13.876c-.908 1.105-2.057 1.67-3.5 1.59a3.983 3.983 0 01-2.698-1.213c-1.443-1.455-1.63-3.88-.32-5.523 1.309-1.643 3.633-2.074 5.423-.97A4.228 4.228 0 017.8 13.283c1.389.782 2.805 1.563 4.22 2.344.989-1.482 2.351-2.29 4.115-2.452V8.354c-2.298-.162-4.061-2.37-3.74-4.768C12.688 1.51 14.533-.053 16.642 0c2.111.028 3.848 1.7 4.008 3.8.16 2.182-1.415 4.257-3.766 4.5zM12.93 21.5c-.054-.62.294-1.023.748-1.293.48-.27.962-.539 1.442-.754.535-.243.615-.512.268-.97-.027-.027-.054-.054-.054-.08-.534-.701-.801-1.456-.721-2.345.08-1.024.721-1.697 1.71-1.805 1.095-.108 1.923.512 2.083 1.59.134.862-.107 1.643-.587 2.37-.134.162-.24.35-.321.566-.107.27-.027.431.214.593.133.08.294.135.454.215.427.216.881.431 1.309.674.427.27.668.647.641 1.185 0 0 0 .027.027.027 1.309-1.454 1.656-4.283-.214-6.277-1.79-1.886-4.755-1.967-6.625-.162-1.924 1.86-1.87 4.715-.374 6.466zm13.143 6.52c-.026-.431.188-.7.481-.916.08-.054.16-.108.268-.162.32-.161.667-.35.988-.512.374-.161.427-.404.187-.727-.027-.027-.027-.054-.053-.054-.374-.512-.615-1.104-.588-1.751.026-.674.374-1.185.961-1.374.24-.08.535-.08.802-.054.534.027.935.377 1.122.862.16.431.16.89.053 1.347a2.884 2.884 0 01-.534 1.024c-.267.35-.187.62.214.808.32.135.614.27.935.431.454.243.801.54.774 1.132 1.07-1.186 1.336-3.556-.4-5.119-1.31-1.185-3.553-1.293-4.996.216-1.496 1.428-1.255 3.664-.214 4.849zm-12.395 7.14c0-.108.026-.19.026-.27a.945.945 0 01.428-.62c.427-.242.855-.485 1.282-.7.374-.189.428-.404.187-.728l-.16-.242c-.374-.566-.534-1.185-.427-1.859.133-.7.667-1.158 1.389-1.185.774-.027 1.362.377 1.523 1.077.16.728 0 1.374-.428 1.994-.107.135-.187.27-.267.431-.08.215-.027.377.16.485l.32.162c.295.134.615.269.882.43.374.216.668.513.668 1.024l.027.027a3.645 3.645 0 00-.214-4.903c-1.442-1.482-3.767-1.482-5.183-.027-1.469 1.455-1.282 3.664-.213 4.903zM1.389 13.633c-.027-.485.24-.782.588-.97.347-.216.721-.405 1.095-.593.454-.216.534-.404.214-.808-.027-.054-.054-.081-.08-.135a2.6 2.6 0 01-.508-1.697c.054-.7.428-1.213 1.095-1.374.829-.189 1.683.161 1.87 1.185.107.647-.053 1.24-.4 1.778-.107.162-.214.297-.294.485-.107.216-.027.377.187.512.107.054.214.108.294.135.213.107.454.188.668.296.454.243.908.539.881 1.185 1.069-1.185 1.282-3.421-.214-4.957a3.615 3.615 0 00-5.155.027c-1.416 1.374-1.443 3.556-.24 4.93zm17.899-7.167c1.175-1.32 1.229-3.664-.32-5.065-1.63-1.481-4.061-1.239-5.397.54-1.202 1.589-.721 3.636.133 4.498 0-.43.214-.7.535-.916.133-.108.294-.188.454-.27.267-.134.534-.269.801-.376.321-.135.374-.404.187-.674l-.08-.08c-.454-.593-.694-1.267-.56-2.048.106-.593.453-.997 1.041-1.132.615-.134 1.176-.054 1.603.458.347.431.374.97.294 1.482-.08.485-.294.89-.588 1.266-.267.377-.187.62.24.808.054.027.134.054.188.081.32.162.668.324.988.512.32.162.534.485.48.916zM1.362 27.993c.107-.566.214-.727.695-1.024.347-.188.695-.377 1.042-.539.374-.161.454-.404.187-.727a.819.819 0 01-.134-.188c-.4-.593-.587-1.213-.454-1.913.107-.62.561-1.051 1.176-1.159.961-.161 1.71.431 1.763 1.428.026.404-.054.808-.214 1.186-.107.215-.267.43-.4.646-.268.377-.188.62.24.808.187.081.4.162.587.243.535.27 1.096.512 1.096 1.293 1.042-1.186 1.255-3.34-.134-4.85-1.362-1.454-3.686-1.535-5.13-.188-1.522 1.4-1.468 3.664-.32 4.984zm30.295-14.36c1.335-1.562 1.068-3.96-.535-5.253-1.576-1.293-3.953-.97-5.182.727-1.176 1.59-.721 3.61.16 4.473-.027-.458.24-.755.588-.97.374-.216.748-.404 1.149-.593.374-.162.454-.404.213-.727-.053-.081-.133-.162-.187-.243-.374-.539-.534-1.131-.427-1.805.08-.593.4-1.024.962-1.185.614-.189 1.175-.108 1.63.404.4.458.427.997.347 1.562a2.68 2.68 0 01-.508 1.132c-.374.485-.32.727.267.97.24.108.48.188.721.323.401.243.828.539.802 1.185z" fill="#969696"/></svg>