<?xml version="1.0" standalone="no"?>
<!DOCTYPE svg PUBLIC "-//W3C//DTD SVG 20010904//EN"
 "http://www.w3.org/TR/2001/REC-SVG-20010904/DTD/svg10.dtd">
<svg version="1.0" xmlns="http://www.w3.org/2000/svg"
 width="225.000000pt" height="225.000000pt" viewBox="0 0 225.000000 225.000000"
 preserveAspectRatio="xMidYMid meet">
<metadata>
Created by potrace 1.16, written by Peter Selinger 2001-2019
</metadata>
<g transform="translate(0.000000,225.000000) scale(0.100000,-0.100000)"
fill="#FFFFFF" stroke="none">
<path style="fill:#FFFFFF" d="M975 2239 c-360 -45 -691 -283 -855 -614 -276 -557 -50 -1230 505
-1505 558 -277 1235 -47 1508 512 206 422 130 922 -193 1262 -253 267 -599
390 -965 345z m339 -185 c603 -114 935 -793 661 -1349 -222 -449 -755 -648
-1221 -454 -449 187 -682 699 -532 1169 112 351 433 610 805 649 92 10 179 5
287 -15z"/>
<path d="M654 1334 c-20 -19 -24 -31 -19 -52 4 -17 88 -110 233 -254 193 -193
232 -228 257 -228 25 0 65 35 259 229 205 205 229 232 229 262 0 21 -7 38 -22
51 -49 39 -62 31 -270 -177 l-196 -194 -196 194 c-213 213 -225 220 -275 169z"/>
</g>
</svg>
