<?xml version="1.0" standalone="no"?>
<!DOCTYPE svg PUBLIC "-//W3C//DTD SVG 20010904//EN"
 "http://www.w3.org/TR/2001/REC-SVG-20010904/DTD/svg10.dtd">
<svg version="1.0" xmlns="http://www.w3.org/2000/svg"
 width="900.000000pt" height="714.000000pt" viewBox="0 0 900.000000 714.000000"
 preserveAspectRatio="xMidYMid meet">
<metadata>
Created by potrace 1.16, written by Peter Selinger 2001-2019
</metadata>
<g transform="translate(0.000000,714.000000) scale(0.100000,-0.100000)"
fill="#989494" stroke="none">
<path d="M1001 7129 c-465 -55 -847 -389 -968 -849 l-27 -105 -4 -1427 c-3
-1572 -4 -1527 59 -1720 33 -104 104 -238 174 -328 59 -77 188 -197 265 -248
172 -114 409 -191 588 -192 l42 0 -2 -560 c-2 -308 -1 -560 2 -560 3 0 255
250 561 556 l556 556 7 -81 c18 -204 103 -427 224 -587 189 -250 469 -408 787
-444 57 -6 641 -10 1600 -10 l1510 0 562 -562 563 -563 0 561 0 561 258 6
c329 7 441 30 627 125 288 148 494 408 582 732 l28 105 3 1427 c3 1570 4 1528
-58 1718 -109 333 -387 609 -718 714 -171 54 -204 56 -862 56 l-607 0 -7 84
c-26 320 -192 624 -445 814 -134 101 -279 166 -466 210 -63 14 -289 16 -2415
18 -1290 1 -2378 -2 -2419 -7z m4771 -776 c84 -39 155 -109 194 -188 l29 -60
0 -232 0 -232 -1280 -4 c-1278 -3 -1280 -3 -1370 -25 -296 -72 -552 -300 -661
-587 -54 -145 -54 -143 -54 -1116 l0 -899 -798 2 -797 3 -66 32 c-80 39 -150
111 -187 191 l-27 57 0 1405 0 1405 29 60 c51 102 157 189 263 214 22 5 1027
8 2348 8 l2310 -2 67 -32z m2265 -1132 c77 -41 146 -113 181 -189 l27 -57 0
-1405 0 -1405 -29 -60 c-39 -79 -110 -149 -194 -188 l-67 -32 -2330 0 -2330 0
-67 32 c-84 39 -155 109 -194 188 l-29 60 -3 1290 c-2 926 0 1307 8 1350 31
163 151 319 306 396 123 61 -42 57 2409 56 l2250 -2 62 -34z"/>
</g>
</svg>
