<?xml version="1.0" encoding="utf-8"?>
<!-- Generator: Adobe Illustrator 16.0.0, SVG Export Plug-In . SVG Version: 6.00 Build 0)  -->
<!DOCTYPE svg PUBLIC "-//W3C//DTD SVG 1.1//EN" "http://www.w3.org/Graphics/SVG/1.1/DTD/svg11.dtd">
<svg version="1.1" id="Capa_1" xmlns="http://www.w3.org/2000/svg" xmlns:xlink="http://www.w3.org/1999/xlink" x="0px" y="0px"
	 width="1500px" height="1500px" viewBox="-675 -675 1500 1500" enable-background="new -675 -675 1500 1500" xml:space="preserve">
<g>
	<g>
		<g>
			<path fill="#375D70" d="M74.999-545.671c-342.781,0-620.676,277.883-620.676,620.666c0,342.794,277.895,620.677,620.676,620.677
				c342.796,0,620.667-277.895,620.667-620.677C695.677-267.789,417.795-545.671,74.999-545.671z M74.999,575.396
				c-276.336,0-500.38-224.043-500.38-500.391c0-276.348,224.044-500.392,500.38-500.392c276.37,0,500.369,224.033,500.369,500.381
				C575.368,351.342,351.369,575.396,74.999,575.396z"/>
			<path fill="#000412" d="M75.032-545.671v120.285c276.337,0,500.349,224.033,500.349,500.381
				c0,276.347-224.012,500.369-500.349,500.392v120.285c342.784-0.012,620.645-277.895,620.645-620.677
				C695.677-267.789,417.816-545.661,75.032-545.671z"/>
			<circle fill="#D0BAB3" cx="74.999" cy="75.005" r="500.391"/>
			<path fill="#FFFFF3" d="M74.999-377.268c249.782,0,452.27,202.486,452.27,452.273c0,249.782-202.487,452.268-452.27,452.268
				c-249.782,0-452.272-202.486-452.272-452.268C-377.273-174.782-174.783-377.268,74.999-377.268z"/>
			<path fill="#EFF3F3" d="M74.999-377.268c-0.745,0-1.491,0.044-2.242,0.044V527.23c0.751,0,1.497,0.043,2.242,0.043
				c249.782,0,452.27-202.486,452.27-452.279C527.269-174.771,324.781-377.268,74.999-377.268z"/>
			<path fill="#375D70" d="M90.156,572.893c0,8.471-6.871,15.352-15.347,15.352l0,0c-8.47,0-15.34-6.881-15.34-15.352v-85.25
				c0-8.48,6.881-15.352,15.34-15.352l0,0c8.476,0,15.347,6.871,15.347,15.352V572.893z"/>
			<path fill="#000412" d="M75.032,472.336v115.865c8.362-0.109,15.124-6.893,15.124-15.297v-85.24
				C90.156,479.238,83.395,472.445,75.032,472.336z"/>
		</g>
		<path fill="#002237" d="M-339.059,54.248c8.487,0,15.351,6.866,15.351,15.341l0,0c0,8.47-6.864,15.347-15.351,15.347h-85.255
			c-8.471,0-15.34-6.877-15.34-15.347l0,0c0-8.475,6.869-15.341,15.34-15.341H-339.059z"/>
		<path fill="#000412" d="M573.215,54.248c8.471,0,15.329,6.866,15.329,15.341l0,0c0,8.47-6.858,15.347-15.329,15.347h-85.261
			c-8.481,0-15.342-6.877-15.342-15.347l0,0c0-8.475,6.86-15.341,15.342-15.341H573.215z"/>
		<path fill="#375D70" d="M90.156-337.66c0,8.477-6.871,15.341-15.347,15.341l0,0c-8.47,0-15.34-6.864-15.34-15.341v-85.255
			c0-8.47,6.881-15.341,15.34-15.341l0,0c8.476,0,15.347,6.871,15.347,15.341V-337.66z"/>
		<path fill="#000412" d="M75.032-438.222v115.881c8.362-0.12,15.124-6.914,15.124-15.319v-85.255
			C90.156-431.309,83.395-438.097,75.032-438.222z"/>
		<path fill="#DB3D2D" d="M302.331,339.867L78.189,80.58L62.693,93.971l224.146,259.266c3.714,4.279,10.19,4.736,14.448,1.045
			C305.555,350.592,306.033,344.123,302.331,339.867z"/>
		<path fill="#002237" d="M75.032,18.716c29.19,0,52.859,23.665,52.859,52.854c0,29.195-23.669,52.865-52.859,52.865
			c-29.19,0-52.853-23.67-52.853-52.865C22.179,42.381,45.842,18.716,75.032,18.716z"/>
		<path fill="#002237" d="M438.491,59.366H95.752v20.468h342.739c5.64,0,10.235-4.583,10.235-10.233
			C448.727,63.944,444.131,59.366,438.491,59.366z"/>
		<path fill="#002237" d="M96.993,58.516c0,12.243-9.931,22.173-22.173,22.173l0,0c-12.216,0-22.162-9.93-22.162-22.173v-328.521
			c0-12.243,9.946-22.167,22.162-22.167l0,0c12.253,0,22.173,9.923,22.173,22.167V58.516z"/>
		<path fill="#000412" d="M75.032,35.761c19.782,0,35.81,16.032,35.81,35.81c0,19.777-16.027,35.814-35.81,35.814
			c-19.776,0-35.809-16.037-35.809-35.814C39.223,51.793,55.256,35.761,75.032,35.761z"/>
	</g>
</g>
</svg>
