<?xml version="1.0" standalone="no"?>
<!DOCTYPE svg PUBLIC "-//W3C//DTD SVG 20010904//EN"
 "http://www.w3.org/TR/2001/REC-SVG-20010904/DTD/svg10.dtd">
<svg version="1.0" xmlns="http://www.w3.org/2000/svg"
 width="225.000000pt" height="225.000000pt" viewBox="0 0 225.000000 225.000000"
 preserveAspectRatio="xMidYMid meet">
<metadata>
Created by potrace 1.16, written by Peter Selinger 2001-2019
</metadata>
<g transform="translate(0.000000,225.000000) scale(0.100000,-0.100000)"
fill="#000000" stroke="none">
<path d="M906 1914 c4 -16 0 -37 -11 -58 -24 -44 -14 -84 25 -99 33 -12 22 19
131 -402 l62 -240 217 -127 c119 -71 223 -128 229 -128 35 0 -14 36 -205 148
-115 67 -209 128 -208 135 1 7 47 181 103 388 55 207 101 379 101 383 0 3 -6
6 -13 6 -9 0 -45 -117 -112 -366 -68 -252 -101 -359 -106 -346 -4 11 -38 136
-74 278 -66 254 -66 258 -49 289 23 43 12 84 -26 98 -20 8 -31 20 -35 39 -4
15 -13 28 -21 28 -10 0 -13 -7 -8 -26z"/>
</g>
</svg>
