<?xml version="1.0" encoding="utf-8"?>
<!-- Generator: Adobe Illustrator 22.0.0, SVG Export Plug-In . SVG Version: 6.00 Build 0)  -->
<svg version="1.1" id="Calque_1" xmlns="http://www.w3.org/2000/svg" xmlns:xlink="http://www.w3.org/1999/xlink" x="0px" y="0px"
	 viewBox="0 0 13.4 8.1" style="enable-background:new 0 0 13.4 8.1;" xml:space="preserve">
<style type="text/css">
	.st0{fill:#FFFFFF;}
</style>
<path class="st0" d="M11.2,4.7c-0.1,0-0.1,0-0.2,0c-3.4,0-6.8,0-10.3,0C0.3,4.7,0,4.3,0.1,3.9c0.1-0.3,0.3-0.4,0.6-0.4
	c0.3,0,0.6,0,0.9,0c3.1,0,6.3,0,9.4,0c0.1,0,0.1,0,0.2,0c-0.1-0.1-0.1-0.1-0.1-0.1C10.4,2.6,9.7,1.9,9,1.2C8.7,0.9,8.7,0.5,9,0.3
	c0.2-0.2,0.6-0.2,0.8,0C9.8,0.3,9.9,0.3,10,0.4c1.1,1.1,2.1,2.1,3.2,3.2c0.3,0.3,0.3,0.7,0,0.9C12.1,5.6,11,6.7,9.9,7.8
	C9.7,7.9,9.5,8,9.2,7.9C9,7.9,8.8,7.7,8.8,7.5c0-0.2,0-0.4,0.2-0.6c0.7-0.7,1.4-1.4,2.1-2.1C11.1,4.8,11.2,4.7,11.2,4.7
	C11.2,4.7,11.2,4.7,11.2,4.7z"/>
</svg>
