<?xml version="1.0" encoding="utf-8"?>
<!-- Generator: Adobe Illustrator 22.0.0, SVG Export Plug-In . SVG Version: 6.00 Build 0)  -->
<svg version="1.1" id="Calque_1" xmlns="http://www.w3.org/2000/svg" xmlns:xlink="http://www.w3.org/1999/xlink" x="0px" y="0px"
	 viewBox="0 0 100 100" style="enable-background:new 0 0 100 100;" xml:space="preserve">
<style type="text/css">
	.st0{fill:#F3F7FA;}
</style>
<g>
	<path class="st0" d="M55.9,2.2c2.3,0.6,4.6,1.2,6.9,1.8c8,2,14.9,6,20.8,11.6c2.7,2.6,3,4.8,1.2,6.7c-1.9,1.9-3.9,1.7-6.8-0.9
		C64.8,10,50.1,7.2,34,13.8c-15.2,6.2-24.8,21-24.7,37c0.1,17,9.8,31.7,25.4,38c25.7,10.5,54.3-7.5,55.9-35.2c0-0.4,0.1-0.9,0.1-1.3
		c0.1-2.1,0.4-4.2,2.8-5c2.5-0.8,4.1,0.5,5.4,2.5c0,2.2,0,4.3,0,6.5c-0.2,0.8-0.5,1.6-0.7,2.5c-3.5,18.5-13.9,31.3-31.6,38
		C63,98.2,59,99,55.2,100c-3.5,0-7,0-10.4,0c-0.5-0.2-1-0.5-1.5-0.6C22.8,96.5,7.1,82.1,2.4,61.9C2,60.3,1.5,58.6,1.1,57
		c0-3.9,0-7.8,0-11.7c0.2-0.7,0.5-1.4,0.6-2.2C4.9,26.2,14.2,14,29.7,6.8c4.7-2.2,10-3.1,15.1-4.6C48.5,2.2,52.2,2.2,55.9,2.2z"/>
	<path class="st0" d="M46,55.1c-4.2,0-7.9,0-11.6,0c-3.1,0-4.9-1.6-4.7-4.1c0.2-2.8,2-3.9,4.6-3.9c3.7,0,7.4,0,11.6,0
		c0-4-0.1-7.9,0-11.7c0.1-3,1.8-4.8,4.3-4.5c2.6,0.3,3.7,1.9,3.7,4.5c0,3.8,0,7.6,0,11.8c3.9,0,7.6,0,11.2,0c3.3,0,5.2,1.5,5,4.1
		c-0.2,3-2.2,3.9-5,3.9c-3.6-0.1-7.2,0-11.3,0c0,4,0.1,7.9,0,11.7c-0.1,3-1.8,4.8-4.3,4.5c-2.6-0.3-3.7-1.9-3.7-4.5
		C46,63.1,46,59.4,46,55.1z"/>
</g>
</svg>
