<?xml version="1.0" encoding="iso-8859-1"?>
<!-- Generator: Adobe Illustrator 17.0.0, SVG Export Plug-In . SVG Version: 6.00 Build 0)  -->
<!DOCTYPE svg PUBLIC "-//W3C//DTD SVG 1.1//EN" "http://www.w3.org/Graphics/SVG/1.1/DTD/svg11.dtd">
<svg version="1.1" id="Capa_1" xmlns="http://www.w3.org/2000/svg" xmlns:xlink="http://www.w3.org/1999/xlink" x="0px" y="0px"
	 width="512px" height="512px" viewBox="-49 141 512 512" style="enable-background:new -49 141 512 512;" xml:space="preserve">
<path style="fill:#FFFFFF;" d="M256.587,618.867H44.867c-4.71,0-8.533-3.814-8.533-8.533v-102.4c0-2.534,1.126-4.932,3.072-6.562
	l41.728-34.731c7.552-6.298,17.135-9.822,26.974-9.907h111.01c16.119-0.393,30.003,12.442,30.532,28.902
	c0.009,0.085,0.017,0.87,0.017,0.964c0,16.469-13.397,29.867-29.867,29.867h-55.467c-4.702,0-8.533,3.823-8.533,8.533
	s3.831,8.533,8.533,8.533h99.669l95.403-68.122c7.202-5.171,16.051-7.228,24.781-5.786c8.772,1.442,16.461,6.221,21.632,13.449
	c0.521,0.7,1.041,1.493,1.536,2.321c8.841,14.814,4.762,34.253-9.293,44.262l-103.45,85.478
	C283.945,613.969,270.445,618.85,256.587,618.867z M53.4,601.8h203.179c9.882-0.017,19.533-3.499,27.162-9.813l103.945-85.854
	c7.339-5.257,9.344-14.754,5.026-21.982c-0.222-0.367-0.452-0.725-0.708-1.075c-2.569-3.584-6.306-5.905-10.581-6.613
	c-4.284-0.683-8.559,0.299-12.075,2.825l-97.638,69.726c-1.468,1.033-3.2,1.587-4.975,1.587h-102.4c-14.114,0-25.6-11.486-25.6-25.6
	s11.486-25.6,25.6-25.6H219.8c7.057,0,12.8-5.743,12.8-12.8c-0.23-7.467-6.135-12.817-13.21-12.809L108.184,473.8
	c-5.837,0.051-11.58,2.167-16.119,5.948L53.4,511.935V601.8z"/>
<path style="fill:#FFFFFF;" d="M44.611,653H-49v-17.067h85.077v-128H-49v-17.067h93.611c4.71,0,8.533,3.814,8.533,8.533v145.067
	C53.144,649.186,49.321,653,44.611,653z"/>
<path style="fill:#FFFFFF;" d="M-6.333,618.867c-14.114,0-25.6-11.486-25.6-25.6s11.486-25.6,25.6-25.6s25.6,11.486,25.6,25.6
	S7.781,618.867-6.333,618.867z M-6.333,584.733c-4.702,0-8.533,3.823-8.533,8.533s3.831,8.533,8.533,8.533s8.533-3.823,8.533-8.533
	S-1.631,584.733-6.333,584.733z"/>
<path style="fill:#FFFFFF;" d="M403.267,473.8H10.733C-22.205,473.8-49,446.997-49,414.067c0-4.719,3.823-8.533,8.533-8.533h494.933
	c4.719,0,8.533,3.814,8.533,8.533C463,446.997,436.197,473.8,403.267,473.8z M-31.071,422.6
	c3.959,19.447,21.197,34.133,41.805,34.133h392.533c20.608,0,37.845-14.686,41.805-34.133H-31.071z"/>
<path style="fill:#FFFFFF;" d="M420.333,422.6H-6.333c-4.71,0-8.533-3.814-8.533-8.533v-8.533
	c0-122.334,99.533-221.867,221.867-221.867c122.342,0,221.867,99.533,221.867,221.867v8.533
	C428.867,418.786,425.052,422.6,420.333,422.6z M2.2,405.533h409.6c0-112.922-91.878-204.8-204.8-204.8S2.2,292.612,2.2,405.533z"/>
<path style="fill:#FFFFFF;" d="M64.434,311.778l-14.225-9.429c4.941-7.458,10.47-14.635,16.435-21.342l12.757,11.332
	C73.974,298.44,68.939,304.985,64.434,311.778z"/>
<path style="fill:#FFFFFF;" d="M90.221,281.194l-11.691-12.433C113.449,235.933,159.077,217.826,207,217.8l0.009,17.067
	C163.446,234.892,121.965,251.345,90.221,281.194z"/>
<rect x="181.4" y="141" style="fill:#FFFFFF;" width="51.2" height="17.067"/>
<rect x="198.467" y="149.533" style="fill:#FFFFFF;" width="17.067" height="42.667"/>
</svg>
