<?xml version="1.0" encoding="utf-8"?>
<!-- Generator: Adobe Illustrator 22.0.0, SVG Export Plug-In . SVG Version: 6.00 Build 0)  -->
<svg version="1.1" id="Calque_1" xmlns="http://www.w3.org/2000/svg" xmlns:xlink="http://www.w3.org/1999/xlink" x="0px" y="0px"
	 viewBox="0 0 762 186" style="enable-background:new 0 0 762 186;" xml:space="preserve">
<g>
	<g>
		<g>
			<path d="M128.6,9.8v115.6h-13.1V14.8l-45.4,79h-1.5l-47.2-72v103.7H20V19.7l-6.4-9.9h13.9L74.9,83L117,9.8H128.6z"/>
		</g>
		<g>
			<path d="M198.1,81h-41l-15.7,44.4h-1.3l36-101.4l-5.5-14.2h13.1l44.6,115.6h-13.1L198.1,81z M197.6,79.9l-20.8-54.2l-19.2,54.2
				H197.6z"/>
		</g>
		<g>
			<path d="M253,9.8v115.6h-13V9.8H253z"/>
		</g>
		<g>
			<path d="M352.6,92.7c0,19.7-17.8,33.5-41.3,33.5c-13.4,0-31.1-4.6-43.4-12.7V91.1c8.6,16.4,27.6,32.5,48.6,32.5
				c15.5,0,27.3-7.4,28.7-20.2c4.5-35-70.2-24.1-70.2-65.7c0-13.7,9.3-29.6,35.5-29.6c12.1,0,25.6,4.8,34.5,10.6v17.2
				c-11.9-18.3-27.8-25.6-38.7-25.6c-16.7,0-24.1,7.4-25.1,19.2C278.6,62.5,352.6,53.3,352.6,92.7z"/>
		</g>
		<g>
			<path d="M484.4,67.3c0,32.5-29.2,59-61.8,59c-32.7,0-61.8-26.4-61.8-59c0-32.7,29.1-59.1,61.8-59.1
				C455.2,8.2,484.4,34.6,484.4,67.3z M470.5,67.3c0-30.6-19.2-57.7-47.9-57.7c-28.9,0-47.9,27.1-47.9,57.7
				c0,30.4,19,57.7,47.9,57.7C451.4,125,470.5,97.7,470.5,67.3z"/>
		</g>
		<g>
			<path d="M580.5,9.8v115.6h-2.5L499.4,24.9v100.6h-1.2V23.2L487.7,9.8h16.7l74.8,94.8V9.8H580.5z"/>
		</g>
		<g>
			<path d="M748.4,9.8v115.6h-13V14.8l-45.4,79h-1.5l-47.2-72v103.7h-1.3V19.7l-6.4-9.9h13.9L694.7,83l42.1-73.2H748.4z"/>
		</g>
	</g>
	<g>
		<g>
			<path d="M30.4,176.5c-1.5,0.6-3,0.9-4.5,0.9c-1.7,0-3.3-0.3-4.7-0.9c-1.4-0.6-2.6-1.4-3.7-2.5c-1-1.1-1.8-2.3-2.4-3.8
				c-0.6-1.5-0.9-3.1-0.9-4.8c0-1.7,0.3-3.4,0.9-4.8c0.6-1.5,1.4-2.8,2.4-3.8c1-1.1,2.3-1.9,3.7-2.5c1.4-0.6,3-0.9,4.7-0.9
				c1.4,0,2.8,0.2,4.1,0.7c1.3,0.5,2.5,1.2,3.4,2.2l-0.5,0.5c-0.5-0.5-1-0.9-1.5-1.2c-0.6-0.4-1.2-0.7-1.8-0.9
				c-0.6-0.2-1.3-0.4-1.9-0.5c-0.6-0.1-1.3-0.2-1.9-0.2c-1.6,0-3.1,0.3-4.5,0.9c-1.3,0.6-2.5,1.4-3.5,2.4c-1,1-1.7,2.2-2.2,3.6
				c-0.5,1.4-0.8,2.9-0.8,4.5c0,1.6,0.3,3.1,0.8,4.5c0.5,1.4,1.3,2.6,2.2,3.6c1,1,2.1,1.8,3.5,2.4c1.3,0.6,2.8,0.9,4.5,0.9
				c1.4,0,2.8-0.3,4.2-0.8c1.4-0.5,2.5-1.4,3.4-2.5l0.5,0.5C33.1,175,31.9,175.9,30.4,176.5z"/>
			<path d="M25.9,177.8c-1.8,0-3.4-0.3-4.9-0.9c-1.5-0.6-2.8-1.5-3.8-2.6c-1.1-1.1-1.9-2.5-2.5-4c-0.6-1.5-0.9-3.2-0.9-5
				c0-1.8,0.3-3.5,0.9-5c0.6-1.5,1.4-2.9,2.5-4c1.1-1.1,2.4-2,3.9-2.6c2.7-1.1,6.1-1.3,9.2-0.2c1.4,0.5,2.6,1.3,3.6,2.3l0.3,0.3
				l-1.1,1.3l-0.4-0.4c-0.4-0.4-0.9-0.8-1.4-1.2c-0.5-0.3-1.1-0.6-1.7-0.8c-0.6-0.2-1.2-0.4-1.8-0.5c-2.3-0.4-4.3-0.1-6.1,0.7
				c-1.3,0.6-2.4,1.3-3.3,2.3c-0.9,1-1.6,2.1-2.1,3.5c-0.5,1.3-0.8,2.8-0.8,4.3c0,1.5,0.2,3,0.7,4.3c0.5,1.3,1.2,2.5,2.1,3.5
				c0.9,1,2,1.8,3.3,2.3c2.4,1,5.5,1.2,8.3,0.1c1.3-0.5,2.4-1.3,3.2-2.3l0.3-0.4l1.2,1.2l-0.3,0.4c-1,1.2-2.3,2.1-3.9,2.7l0,0
				C29.1,177.5,27.5,177.8,25.9,177.8z"/>
		</g>
		<g>
			<path d="M72,176.7l-6.9-11.5h-5.4v11.5h-0.7v-22.9h6.3c0.8,0,1.7,0.1,2.5,0.2c0.9,0.2,1.6,0.4,2.3,0.9c0.7,0.4,1.2,1,1.7,1.7
				c0.4,0.7,0.6,1.7,0.6,2.8c0,1.1-0.2,2-0.6,2.7c-0.4,0.7-0.9,1.3-1.6,1.7c-0.6,0.4-1.4,0.8-2.1,1s-1.6,0.3-2.3,0.3l6.9,11.6H72z
				 M71.8,159.5c0-1-0.2-1.8-0.6-2.5c-0.4-0.7-0.9-1.2-1.5-1.5c-0.6-0.4-1.4-0.6-2.2-0.8c-0.8-0.2-1.7-0.2-2.5-0.2h-5.2v10.1h5.6
				c2.1,0,3.7-0.4,4.8-1.3C71.3,162.3,71.8,161.1,71.8,159.5z"/>
			<path d="M73.7,177.2h-2l-6.9-11.5h-4.6v11.5h-1.7v-23.8h6.8c0.9,0,1.7,0.1,2.6,0.2c0.9,0.2,1.8,0.5,2.5,0.9
				c0.7,0.5,1.4,1.1,1.8,1.9c0.5,0.8,0.7,1.8,0.7,3.1c0,1.2-0.2,2.1-0.7,2.9c-0.4,0.8-1,1.4-1.7,1.9c-0.7,0.5-1.5,0.8-2.3,1
				c-0.5,0.1-1.1,0.2-1.6,0.3L73.7,177.2z M60.3,164.1h5.1c2,0,3.5-0.4,4.5-1.2c1-0.8,1.5-1.9,1.5-3.4c0-0.9-0.2-1.6-0.5-2.2
				c-0.3-0.6-0.8-1-1.4-1.4c-0.6-0.3-1.3-0.6-2-0.7c-0.8-0.1-1.6-0.2-2.4-0.2h-4.7V164.1z"/>
		</g>
		<g>
			<path d="M98.6,176.7v-22.9h13.3v0.6H99.3v10h11.9v0.6H99.3V176h13.1v0.6H98.6z M105,152h-0.6l3.3-4.6h0.9L105,152z"/>
			<path d="M112.9,177.2H98.1v-23.8h14.3v1.6H99.8v9h11.9v1.6H99.8v9.9h13.1V177.2z M105.3,152.5h-1.8l4-5.6h2.1L105.3,152.5z"/>
		</g>
		<g>
			<path d="M154.7,176.7l-2.7-6.6h-13.3l-2.8,6.6h-0.8l9.9-22.9h0.9l9.5,22.9H154.7z M145.4,154.3l-6.5,15.2h12.8L145.4,154.3z"/>
			<path d="M156.2,177.2h-1.9l-2.7-6.6H139l-2.8,6.6h-1.9l10.3-23.8h0.6l0.1-0.3l0.1,0.3h0.7L156.2,177.2z M139.7,169H151l-5.6-13.4
				L139.7,169z"/>
		</g>
		<g>
			<path d="M183.5,154.5v22.2h-0.7v-22.2H175v-0.6h16.3v0.6H183.5z"/>
			<polygon points="184,177.2 182.3,177.2 182.3,155 174.5,155 174.5,153.3 191.8,153.3 191.8,155 184,155 			"/>
		</g>
		<g>
			<path d="M215.6,176.7v-22.9h13.3v0.6h-12.6v10h11.9v0.6h-11.9V176h13.1v0.6H215.6z"/>
			<polygon points="229.9,177.2 215.1,177.2 215.1,153.3 229.4,153.3 229.4,155 216.8,155 216.8,164 228.7,164 228.7,165.7 
				216.8,165.7 216.8,175.5 229.9,175.5 			"/>
		</g>
		<g>
			<path d="M271.6,171.7c-0.3,1.1-0.8,2.1-1.5,3c-0.7,0.8-1.6,1.5-2.7,2c-1.1,0.5-2.5,0.7-4.1,0.7s-3-0.2-4.1-0.7
				c-1.1-0.5-2-1.1-2.7-2c-0.7-0.8-1.2-1.8-1.5-3c-0.3-1.1-0.5-2.3-0.5-3.6v-14.2h0.7v14.1c0,0.9,0.1,1.9,0.3,2.9
				c0.2,1,0.6,2,1.1,2.8c0.6,0.9,1.4,1.6,2.4,2.2c1,0.6,2.4,0.9,4.2,0.9c1.7,0,3.1-0.3,4.1-0.8c1-0.6,1.9-1.3,2.4-2.1
				c0.6-0.9,1-1.8,1.2-2.8c0.2-1,0.3-2,0.3-3v-14.1h0.7V168C272.1,169.3,271.9,170.5,271.6,171.7z"/>
			<path d="M263.4,177.8c-1.7,0-3.1-0.3-4.3-0.8c-1.2-0.5-2.1-1.2-2.9-2.1c-0.7-0.9-1.3-1.9-1.6-3.1c-0.3-1.2-0.5-2.4-0.5-3.8v-14.7
				h1.7v14.6c0,0.9,0.1,1.8,0.3,2.8c0.2,1,0.5,1.8,1.1,2.7c0.5,0.8,1.3,1.5,2.2,2c1,0.5,2.3,0.8,3.9,0.8c1.6,0,2.9-0.3,3.9-0.8
				c1-0.5,1.7-1.2,2.3-2c0.5-0.8,0.9-1.7,1.1-2.7c0.2-1,0.3-1.9,0.3-2.9v-14.6h1.7V168c0,1.3-0.2,2.6-0.5,3.8h0
				c-0.3,1.2-0.9,2.3-1.6,3.1c-0.7,0.9-1.7,1.6-2.9,2.1C266.5,177.6,265,177.8,263.4,177.8z"/>
		</g>
		<g>
			<path d="M311.9,176.7l-6.9-11.5h-5.4v11.5h-0.7v-22.9h6.3c0.8,0,1.7,0.1,2.5,0.2c0.9,0.2,1.6,0.4,2.3,0.9c0.7,0.4,1.2,1,1.7,1.7
				c0.4,0.7,0.6,1.7,0.6,2.8c0,1.1-0.2,2-0.6,2.7c-0.4,0.7-0.9,1.3-1.6,1.7c-0.6,0.4-1.4,0.8-2.1,1c-0.8,0.2-1.6,0.3-2.3,0.3
				l6.9,11.6H311.9z M311.7,159.5c0-1-0.2-1.8-0.6-2.5c-0.4-0.7-0.9-1.2-1.5-1.5c-0.6-0.4-1.4-0.6-2.2-0.8c-0.8-0.2-1.7-0.2-2.5-0.2
				h-5.2v10.1h5.6c2.1,0,3.7-0.4,4.8-1.3C311.2,162.3,311.7,161.1,311.7,159.5z"/>
			<path d="M313.6,177.2h-2l-6.9-11.5h-4.6v11.5h-1.7v-23.8h6.8c0.9,0,1.7,0.1,2.6,0.2c0.9,0.2,1.8,0.5,2.5,0.9
				c0.7,0.5,1.4,1.1,1.8,1.9c0.5,0.8,0.7,1.8,0.7,3.1c0,1.2-0.2,2.1-0.7,2.9c-0.4,0.8-1,1.4-1.7,1.9c-0.7,0.5-1.5,0.8-2.3,1
				c-0.5,0.1-1.1,0.2-1.6,0.3L313.6,177.2z M300.1,164.1h5.1c2,0,3.5-0.4,4.5-1.2c1-0.8,1.5-1.9,1.5-3.4c0-0.9-0.2-1.6-0.5-2.2
				c-0.3-0.6-0.8-1-1.4-1.4c-0.6-0.3-1.3-0.6-2-0.7c-0.8-0.1-1.6-0.2-2.4-0.2h-4.7V164.1z"/>
		</g>
		<g>
			<path d="M385.9,165.3c0,2-0.3,3.7-1,5.1c-0.6,1.4-1.5,2.6-2.7,3.5c-1.1,0.9-2.5,1.6-4,2.1c-1.5,0.5-3.2,0.7-4.9,0.7h-6.5v-22.9
				h6.5c1.8,0,3.4,0.2,4.9,0.7c1.5,0.4,2.9,1.1,4,2.1c1.1,0.9,2,2.1,2.7,3.6C385.6,161.6,385.9,163.3,385.9,165.3z M367.5,154.5V176
				h5.6c1.7,0,3.3-0.2,4.7-0.6c1.5-0.4,2.8-1.1,3.8-1.9c1.1-0.9,1.9-2,2.6-3.3c0.6-1.4,0.9-3,0.9-4.9c0-1.9-0.3-3.5-0.9-4.9
				c-0.6-1.4-1.5-2.5-2.6-3.4c-1.1-0.9-2.4-1.5-3.8-1.9c-1.5-0.4-3.1-0.6-4.7-0.6H367.5z"/>
			<path d="M373.3,177.2h-7v-23.8h7c1.8,0,3.5,0.2,5.1,0.7c1.6,0.5,3,1.2,4.2,2.2c1.2,1,2.1,2.2,2.8,3.7c0.7,1.5,1,3.3,1,5.3
				c0,2-0.3,3.8-1,5.3c-0.7,1.5-1.6,2.7-2.8,3.7c-1.2,1-2.6,1.7-4.2,2.2C376.8,177,375.1,177.2,373.3,177.2z M368,175.5h5.1
				c1.6,0,3.2-0.2,4.6-0.6c1.4-0.4,2.6-1,3.7-1.8c1-0.8,1.8-1.9,2.4-3.2c0.6-1.3,0.9-2.9,0.9-4.7c0-1.8-0.3-3.4-0.9-4.7
				c-0.6-1.3-1.4-2.4-2.4-3.2c-1-0.8-2.2-1.4-3.7-1.8c-1.4-0.4-3-0.6-4.6-0.6H368V175.5z"/>
		</g>
		<g>
			<path d="M411.4,161.2h-0.5l1.8-7.4h0.8L411.4,161.2z"/>
			<polygon points="411.8,161.7 410.2,161.7 412.3,153.3 414.1,153.3 			"/>
		</g>
		<g>
			<path d="M439.5,176.7v-22.9h13.3v0.6h-12.6v10H452v0.6h-11.9V176h13.1v0.6H439.5z M445.9,152h-0.6l3.3-4.6h0.9L445.9,152z"/>
			<path d="M453.8,177.2H439v-23.8h14.3v1.6h-12.6v9h11.9v1.6h-11.9v9.9h13.1V177.2z M446.2,152.5h-1.8l4-5.6h2.1L446.2,152.5z"/>
		</g>
		<g>
			<path d="M500.5,176.7v-22h-0.1l-10.1,22h-0.6l-10.1-22h-0.1v22h-0.7v-22.9h1.3l9.9,21.8l9.9-21.8h1.3v22.9H500.5z"/>
			<polygon points="501.7,177.2 500,177.2 500,156.6 490.6,177.2 489.4,177.2 480,156.7 480,177.2 478.3,177.2 478.3,153.3 
				480.4,153.3 490,174.5 499.6,153.3 501.7,153.3 			"/>
		</g>
		<g>
			<path d="M550.8,165.3c0,1.8-0.3,3.4-0.9,4.9c-0.6,1.5-1.4,2.7-2.5,3.8c-1,1.1-2.3,1.9-3.7,2.5c-1.4,0.6-3,0.9-4.7,0.9
				c-1.7,0-3.2-0.3-4.7-0.9c-1.4-0.6-2.7-1.4-3.7-2.5c-1-1.1-1.9-2.3-2.5-3.8c-0.6-1.5-0.9-3.1-0.9-4.9c0-1.8,0.3-3.4,0.9-4.9
				c0.6-1.5,1.4-2.7,2.5-3.8c1-1.1,2.3-1.9,3.7-2.5c1.4-0.6,3-0.9,4.7-0.9c1.7,0,3.3,0.3,4.7,0.9c1.4,0.6,2.7,1.4,3.7,2.5
				c1,1.1,1.9,2.3,2.5,3.8C550.5,161.9,550.8,163.5,550.8,165.3z M550.1,165.3c0-1.6-0.3-3.1-0.8-4.5c-0.5-1.4-1.3-2.6-2.3-3.6
				c-1-1-2.1-1.8-3.5-2.4c-1.4-0.6-2.8-0.9-4.5-0.9c-1.6,0-3.1,0.3-4.5,0.9c-1.4,0.6-2.5,1.4-3.5,2.4c-1,1-1.7,2.2-2.3,3.6
				c-0.5,1.4-0.8,2.9-0.8,4.5c0,1.6,0.3,3.1,0.8,4.5c0.5,1.4,1.3,2.6,2.2,3.6c1,1,2.1,1.8,3.5,2.4c1.4,0.6,2.9,0.9,4.5,0.9
				c1.7,0,3.2-0.3,4.5-0.9c1.4-0.6,2.5-1.4,3.5-2.4c1-1,1.7-2.2,2.2-3.6C549.8,168.3,550.1,166.9,550.1,165.3z"/>
			<path d="M539.1,177.8c-1.7,0-3.4-0.3-4.9-0.9c-1.5-0.6-2.8-1.5-3.9-2.6c-1.1-1.1-1.9-2.4-2.6-4c-0.6-1.5-0.9-3.2-0.9-5
				c0-1.8,0.3-3.5,0.9-5c0.6-1.5,1.5-2.9,2.6-4c1.1-1.1,2.4-2,3.9-2.6c1.5-0.6,3.1-0.9,4.9-0.9c1.8,0,3.4,0.3,4.9,0.9
				c1.5,0.6,2.8,1.5,3.9,2.6c1.1,1.1,1.9,2.4,2.6,4c0.6,1.5,0.9,3.2,0.9,5c0,1.8-0.3,3.5-0.9,5c-0.6,1.5-1.5,2.9-2.6,4
				c-1.1,1.1-2.4,2-3.9,2.6C542.4,177.5,540.8,177.8,539.1,177.8z M539.1,154.3c-1.5,0-3,0.3-4.3,0.8c-1.3,0.6-2.4,1.3-3.3,2.3
				c-0.9,1-1.7,2.1-2.2,3.5c-0.5,1.3-0.8,2.8-0.8,4.3c0,1.5,0.3,3,0.8,4.3c0.5,1.3,1.2,2.5,2.1,3.5c0.9,1,2,1.8,3.3,2.3
				c1.3,0.6,2.7,0.8,4.3,0.8c1.6,0,3-0.3,4.3-0.8c1.3-0.6,2.4-1.3,3.3-2.3c0.9-1,1.6-2.1,2.1-3.5c0.5-1.3,0.8-2.8,0.8-4.3
				c0-1.5-0.3-3-0.8-4.3c-0.5-1.3-1.2-2.5-2.2-3.5c-0.9-1-2.1-1.8-3.3-2.3C542,154.6,540.6,154.3,539.1,154.3z"/>
		</g>
		<g>
			<path d="M581.4,154.5v22.2h-0.7v-22.2h-7.8v-0.6h16.3v0.6H581.4z"/>
			<polygon points="581.9,177.2 580.2,177.2 580.2,155 572.4,155 572.4,153.3 589.6,153.3 589.6,155 581.9,155 			"/>
		</g>
		<g>
			<path d="M613.5,176.7v-22.9h0.7v22.9H613.5z"/>
			<rect x="613" y="153.3" width="1.7" height="23.8"/>
		</g>
		<g>
			<path d="M663.8,165.3c0,1.8-0.3,3.4-0.9,4.9c-0.6,1.5-1.4,2.7-2.5,3.8c-1,1.1-2.3,1.9-3.7,2.5c-1.4,0.6-3,0.9-4.7,0.9
				c-1.7,0-3.2-0.3-4.7-0.9c-1.4-0.6-2.7-1.4-3.7-2.5c-1-1.1-1.9-2.3-2.5-3.8c-0.6-1.5-0.9-3.1-0.9-4.9c0-1.8,0.3-3.4,0.9-4.9
				c0.6-1.5,1.4-2.7,2.5-3.8c1-1.1,2.3-1.9,3.7-2.5c1.4-0.6,3-0.9,4.7-0.9c1.7,0,3.3,0.3,4.7,0.9c1.4,0.6,2.7,1.4,3.7,2.5
				c1,1.1,1.9,2.3,2.5,3.8C663.5,161.9,663.8,163.5,663.8,165.3z M663.1,165.3c0-1.6-0.3-3.1-0.8-4.5c-0.5-1.4-1.3-2.6-2.3-3.6
				c-1-1-2.1-1.8-3.5-2.4c-1.4-0.6-2.8-0.9-4.5-0.9c-1.6,0-3.1,0.3-4.5,0.9c-1.4,0.6-2.5,1.4-3.5,2.4c-1,1-1.7,2.2-2.3,3.6
				c-0.5,1.4-0.8,2.9-0.8,4.5c0,1.6,0.3,3.1,0.8,4.5c0.5,1.4,1.3,2.6,2.2,3.6c1,1,2.1,1.8,3.5,2.4c1.4,0.6,2.9,0.9,4.5,0.9
				c1.7,0,3.2-0.3,4.5-0.9c1.4-0.6,2.5-1.4,3.5-2.4c1-1,1.7-2.2,2.2-3.6C662.8,168.3,663.1,166.9,663.1,165.3z"/>
			<path d="M652,177.8c-1.7,0-3.4-0.3-4.9-0.9c-1.5-0.6-2.8-1.5-3.9-2.6c-1.1-1.1-1.9-2.4-2.6-4c-0.6-1.5-0.9-3.2-0.9-5
				c0-1.8,0.3-3.5,0.9-5c0.6-1.5,1.5-2.9,2.6-4c1.1-1.1,2.4-2,3.9-2.6c1.5-0.6,3.1-0.9,4.9-0.9c1.8,0,3.4,0.3,4.9,0.9
				c1.5,0.6,2.8,1.5,3.9,2.6c1.1,1.1,1.9,2.4,2.6,4c0.6,1.5,0.9,3.2,0.9,5c0,1.8-0.3,3.5-0.9,5c-0.6,1.5-1.5,2.9-2.6,4
				c-1.1,1.1-2.4,2-3.9,2.6C655.4,177.5,653.7,177.8,652,177.8z M652,154.3c-1.5,0-3,0.3-4.3,0.8c-1.3,0.6-2.4,1.3-3.3,2.3
				c-0.9,1-1.7,2.1-2.2,3.5c-0.5,1.3-0.8,2.8-0.8,4.3c0,1.5,0.3,3,0.8,4.3c0.5,1.3,1.2,2.5,2.1,3.5c0.9,1,2,1.8,3.3,2.3
				c1.3,0.6,2.7,0.8,4.3,0.8c1.6,0,3-0.3,4.3-0.8c1.3-0.6,2.4-1.3,3.3-2.3c0.9-1,1.6-2.1,2.1-3.5c0.5-1.3,0.8-2.8,0.8-4.3
				c0-1.5-0.3-3-0.8-4.3c-0.5-1.3-1.2-2.5-2.2-3.5c-0.9-1-2.1-1.8-3.3-2.3C655,154.6,653.5,154.3,652,154.3z"/>
		</g>
		<g>
			<path d="M707,176.7l-16.4-21.9h-0.1v21.9h-0.7v-22.9h1l16.4,21.9h0.1v-21.9h0.7v22.9H707z"/>
			<polygon points="708.6,177.2 706.8,177.2 706.6,177 691,156.1 691,177.2 689.3,177.2 689.3,153.3 691.1,153.3 706.9,174.4 
				706.9,153.3 708.6,153.3 			"/>
		</g>
		<g>
			<path d="M747.9,171.2c0,1-0.2,1.8-0.6,2.6c-0.4,0.8-0.9,1.4-1.5,1.9c-0.6,0.5-1.4,0.9-2.2,1.2c-0.9,0.3-1.7,0.4-2.7,0.4
				c-1.4,0-2.7-0.3-3.9-0.8c-1.2-0.5-2.1-1.2-2.9-2l0.5-0.5c0.8,0.9,1.8,1.5,2.9,2c1.1,0.4,2.2,0.7,3.4,0.7c0.8,0,1.6-0.1,2.4-0.4
				c0.8-0.2,1.4-0.6,2-1.1c0.6-0.5,1-1,1.4-1.7c0.3-0.7,0.5-1.5,0.5-2.3s-0.2-1.6-0.5-2.2c-0.4-0.6-0.8-1.1-1.4-1.5
				c-0.6-0.4-1.2-0.8-2-1.1c-0.7-0.3-1.5-0.6-2.2-0.8c-0.9-0.3-1.8-0.6-2.6-1c-0.8-0.3-1.5-0.7-2-1.2c-0.6-0.5-1-1.1-1.3-1.7
				c-0.3-0.7-0.5-1.5-0.5-2.5c0-0.9,0.2-1.8,0.6-2.5c0.4-0.7,0.9-1.4,1.5-1.9c0.6-0.5,1.4-0.9,2.2-1.2c0.9-0.3,1.7-0.4,2.7-0.4
				c1.2,0,2.3,0.2,3.3,0.7c1,0.4,1.9,1.1,2.6,1.9l-0.5,0.5c-0.6-0.8-1.4-1.3-2.3-1.8c-0.9-0.4-2-0.6-3-0.6c-0.8,0-1.5,0.1-2.3,0.3
				c-0.7,0.2-1.4,0.5-2,1c-0.6,0.4-1.1,1-1.5,1.7c-0.4,0.7-0.5,1.5-0.5,2.4c0,0.9,0.2,1.6,0.5,2.2c0.3,0.6,0.8,1.1,1.3,1.6
				c0.5,0.4,1.1,0.8,1.8,1.1c0.7,0.3,1.4,0.5,2.1,0.8c1,0.3,1.9,0.7,2.7,1c0.8,0.3,1.6,0.7,2.2,1.2c0.6,0.5,1.1,1,1.5,1.7
				C747.7,169.4,747.9,170.2,747.9,171.2z"/>
			<path d="M741,177.8c-1.5,0-2.9-0.3-4.1-0.8c-1.2-0.5-2.3-1.3-3.1-2.2l-0.3-0.4l1.3-1.1l0.3,0.4c0.8,0.8,1.7,1.5,2.7,1.9
				c1.7,0.7,3.7,0.8,5.4,0.3c0.7-0.2,1.3-0.6,1.8-1c0.5-0.4,0.9-0.9,1.2-1.5c0.3-0.6,0.4-1.3,0.4-2.1c0-0.8-0.2-1.4-0.5-2
				c-0.3-0.5-0.8-1-1.3-1.4c-0.5-0.4-1.2-0.7-1.9-1c-0.7-0.3-1.5-0.5-2.2-0.8c-1-0.3-1.8-0.6-2.6-1c-0.8-0.4-1.6-0.8-2.2-1.3
				c-0.6-0.5-1.1-1.2-1.5-1.9c-0.3-0.7-0.5-1.6-0.5-2.7c0-1,0.2-2,0.6-2.8c0.4-0.8,1-1.5,1.7-2c0.7-0.5,1.5-1,2.4-1.2
				c2-0.6,4.3-0.6,6.3,0.3c1.1,0.5,2,1.2,2.8,2l0.3,0.4l-1.3,1.1l-0.3-0.4c-0.5-0.7-1.3-1.2-2.1-1.6c-1.5-0.7-3.3-0.8-5-0.3
				c-0.7,0.2-1.3,0.5-1.9,0.9c-0.5,0.4-1,0.9-1.3,1.5c-0.3,0.6-0.5,1.3-0.5,2.1c0,0.8,0.1,1.5,0.4,2c0.3,0.5,0.7,1,1.2,1.4
				c0.5,0.4,1.1,0.7,1.7,1c0.7,0.3,1.4,0.5,2,0.8c1,0.3,1.9,0.7,2.7,1c0.9,0.3,1.7,0.8,2.3,1.3c0.7,0.5,1.2,1.2,1.6,1.9
				c0.4,0.7,0.6,1.7,0.6,2.7c0,1-0.2,2-0.6,2.8c-0.4,0.8-1,1.5-1.6,2.1c-0.7,0.6-1.5,1-2.4,1.3C742.9,177.7,741.9,177.8,741,177.8z"
				/>
		</g>
	</g>
</g>
</svg>
