<?xml version="1.0" encoding="utf-8"?>
<!-- Generator: Adobe Illustrator 22.0.0, SVG Export Plug-In . SVG Version: 6.00 Build 0)  -->
<svg version="1.1" id="Calque_1" xmlns="http://www.w3.org/2000/svg" xmlns:xlink="http://www.w3.org/1999/xlink" x="0px" y="0px"
	 viewBox="0 0 1080 1080" style="enable-background:new 0 0 1080 1080;" xml:space="preserve">
<g>
	<path style="fill:#000000" d="M540,1037c-8.9-10.4-17.6-19.9-25.6-30c-87.7-109-175.6-218.1-246.1-339.4c-28.8-49.5-55.6-100.9-76.7-154
		c-43.1-108.5-21.2-211.6,41.1-306c65-98.4,159-152.8,276.5-163.2c211.4-18.7,394.4,144.3,401.5,356.8c1.8,54-16.7,103.9-37.4,152.7
		c-34.5,81.1-82.1,154.7-133.9,225.3c-59.8,81.4-122.6,160.6-184.1,240.6C550.9,1025.6,545.7,1030.7,540,1037z M540.7,669.6
		c139.8,0,255.5-116.5,255.5-257.2c0-139.9-115.1-254.9-255.6-255.4C400.1,156.5,284.7,272,284.4,413.3
		C284.1,553.3,400.3,669.5,540.7,669.6z"/>
	<path style="fill:#000000" d="M373.3,412.3c0.2-92.4,74.7-166.6,167.1-166.4c93.3,0.1,167.3,74.8,166.9,168.2c-0.4,88.3-75.8,165.5-159.9,166
		C446.8,580.7,373.6,504.3,373.3,412.3z"/>
</g>
</svg>
