<?xml version="1.0" encoding="utf-8"?>
<!-- Generator: Adobe Illustrator 22.0.0, SVG Export Plug-In . SVG Version: 6.00 Build 0)  -->
<svg version="1.1" id="Calque_1" xmlns="http://www.w3.org/2000/svg" xmlns:xlink="http://www.w3.org/1999/xlink" x="0px" y="0px"
	 viewBox="0 0 1080 1080" style="enable-background:new 0 0 1080 1080;" xml:space="preserve">
<g>
	<path fill="#969696" d="M33.2,569.7c0-19.8,0-39.6,0-59.4c2.2-17.3,3.8-34.6,6.7-51.8c17.7-104.7,62.9-195.8,137.2-271.8
		C257,105.1,353.6,55.6,466.7,38.8c14.6-2.2,29.2-3.9,43.8-5.8c19.1,0,38.3,0,57.4,0c3.2,0.6,6.4,1.4,9.6,1.9
		c23.8,3.4,47.9,5.3,71.3,10.4c225.2,49.2,389.2,245.3,397.5,475.1c3.2,89.1-16,173.4-56.7,252.9c-93.1,181.9-296,292.4-498.9,271.1
		c-91.5-9.6-175.2-40.3-249.1-95.2c-113.1-84.1-181-196-202.7-335.5C36.7,599.1,35.2,584.4,33.2,569.7z M857.8,192.9
		C731.2,84.1,585.1,42,422.6,85.9c-189.6,51.2-307,178.2-344.3,371.3C49.1,608.7,92.7,742.9,195.6,860.7c3.4-4.4,5.4-7.5,8-10
		c37.5-37.6,74.9-75.3,112.8-112.6c7.1-7,11.3-13.4,8.8-24c-1.7-6.9-1-14.4-0.9-21.7c0.2-16,11.6-27.7,27.5-27.4
		c9.5,0.2,19,1.9,28.5,2.6c2.5,0.2,5.1-0.5,8.6-0.9c-1.3-2.8-1.7-4-2.3-5.1c-24.8-38.7-34.2-81.7-34.2-127.1
		c0-20.6,11.7-31.6,32.5-30.2c8.9,0.6,17.7,2.1,28,3.3c-4.2-6.2-7.8-10.9-10.8-15.9c-25.1-42.3-29.5-88.2-22.5-135.7
		c2.4-16.1,16-25.7,31.8-22c17.5,4.2,34.5,10.7,51.7,16.3c3.2,1,6.2,2.6,11,4.7c-1.6-5.8-3.1-9.4-3.6-13.2
		c-2.1-16.6-6.2-33.3-5.3-49.8c2.8-51.6,30.3-90.9,66.8-124.9c10.1-9.4,26.8-8.1,37.1,1.4c3.9,3.6,7.4,7.5,10.9,11.5
		c28.9,34,50.4,71.5,49.5,117.6c-0.4,19.4-5.5,38.6-8.1,56c16.3-5.5,35.2-11.9,54-18.1c13-4.3,24.7-2.6,33.3,6.6
		C758,292.7,807.3,243.4,857.8,192.9z M222.9,886.4c182.8,170.8,485.7,169.6,666.7-32.4c182.3-203.5,139.5-485.6-5.1-631.7
		c-1.2,1-2.5,1.9-3.7,3C828.1,278,775.3,330.7,722.8,383.7c-3,3.1-4.8,8.6-5,13c-1.5,34.4-7.7,67.5-26.6,97c-2.9,4.5-6,8.9-9.4,14.1
		c11.5-1.3,21.5-3.1,31.7-3.4c16-0.5,28.3,10.8,28.4,26.6c0.2,41.5-7,81.4-26.9,118.3c-3.4,6.3-7.2,12.3-11.2,19.2
		c12.6-1.3,23.9-3,35.4-3.5c19.6-1,31,10.3,30.9,29.8c-0.2,32-5.2,63.2-16.7,93c-28,72.7-78.8,119.2-157.2,131.2
		c-21.6,3.3-44.1,1.4-66.2,1.8c-68.6,1.3-123.1-26.5-162.3-82c-14-19.8-23.1-43.1-33.6-63.2C298.3,811.1,260.8,848.6,222.9,886.4z
		 M733,702.2c-52.4,5.8-96.7,23.7-128.5,65.7c-25.9,34.2-36.9,73.3-38.5,116.8c46.5-0.7,84.8-16.4,116.1-49.1
		C717.5,798.4,728.9,752.4,733,702.2z M529.1,883.6c-2.4-15.6-3.5-29.8-6.8-43.5C507.1,776,470,731.1,406,710.6
		c-5.6-1.8-9.7-1.5-13.9,3.2c-7,7.8-15,14.9-22.1,22.6c-1.9,2.1-3.5,5.9-3,8.4c13,60.6,44.6,106.5,104.1,129.6
		C488.9,881.4,507.6,884.9,529.1,883.6z M703.8,541.8c-44.9,6.4-82.7,24.1-108.6,61.9c-20.6,30.1-29.9,63.6-29.4,100
		C634.7,710.5,713.4,617.8,703.8,541.8z M544.9,397.3c64.5-64.7,62.6-133.6,3.9-194.9C486.5,265.3,484.7,331.2,544.9,397.3z
		 M414.3,372.3c-5.1,66.1,10.6,102.8,52.2,137c12.7,10.4,28.2,17.7,43.2,24.8c9.3,4.4,18.9-3.5,18.8-14
		c-0.7-43.5-13.2-82.4-46-112.7C463.3,389.5,440.4,378.6,414.3,372.3z M441,667.6c25.4,19.5,52,37.1,87.9,37.1
		c-0.7-36.3-9-68.6-27.7-97.1C480.9,627.8,461.3,647.3,441,667.6z M388.8,542.1c1.3,34.4,8.6,66.1,25.6,94.7
		c20.2-20.3,39.8-39.9,59.5-59.6C457.8,560.2,416.3,542.5,388.8,542.1z M677.3,373.6c-57.1,10.9-99.7,59-106.3,106.3
		C605.8,445.1,641.7,409.2,677.3,373.6z M675.8,434.5c-33.5,33.5-67.8,67.8-101.4,101.3C602.7,539.2,671.9,482.7,675.8,434.5z
		 M547,793.7c9.8-17.1,19.7-34.3,30.1-52.3c-20.5,0-40.3,0-60.4,0C527.3,759.7,537.2,776.7,547,793.7z M547.1,614.6
		c7.6-13.2,15.2-26.4,23.5-40.9c-12.2,0-23.5-0.4-34.7,0.2c-5,0.3-10.6,2.4-6.8,9.4C534.9,594,541.2,604.3,547.1,614.6z"/>
</g>
</svg>
