<svg width="65" height="62" viewBox="0 0 65 62" fill="none" xmlns="http://www.w3.org/2000/svg">
<path d="M27.5352 0H36.8184V11.192H27.5352V0Z" fill="#969696"/>
<path d="M27.5352 15.4996H36.8184V21.2412H27.5352V15.4996Z" fill="#969696"/>
<path d="M3.44531 15.4996V36.0446C4.78066 36.2975 6.04525 36.9687 7.03191 38.0398L14.1432 45.7587C14.1614 45.7786 14.1809 45.797 14.1994 45.8166V44.2458C14.1994 40.9425 16.8868 38.2553 20.1899 38.2553H30.1481C31.3845 38.395 34.6585 36.5219 35.7874 36.073C40.5805 33.8447 46.0358 33.9328 50.7543 36.3146L53.624 37.7722C54.4276 35.1916 56.7346 33.3221 59.4495 33.3221H61.1513V15.4996H41.1237V23.3951C41.1237 24.5846 40.1594 25.5489 38.9698 25.5489H25.3789C24.1894 25.5489 23.2251 24.5846 23.2251 23.3951V15.4996H3.44531Z" fill="#969696"/>
<path d="M41.123 11.192H61.1505V2.98753C61.1505 1.33749 60.0391 0 58.668 0H41.123V11.192Z" fill="#969696"/>
<path d="M59.4497 37.6299C58.4446 37.6299 57.627 38.5947 57.627 39.7806V59.0343C57.627 60.2202 58.4447 61.185 59.4497 61.185H62.852C63.8571 61.185 64.6748 60.2202 64.6748 59.0343V39.7806C64.6748 38.5947 63.8571 37.6299 62.852 37.6299H59.4497Z" fill="#969696"/>
<path d="M23.2252 0H5.50846C4.36906 0 3.44531 1.11161 3.44531 2.48283V11.192H23.2252V0Z" fill="#969696"/>
<path d="M3.86409 40.9585C1.96101 39.0554 -1.27856 41.543 0.53167 43.7564L10.2331 55.5173C13.5266 59.5099 18.384 61.7998 23.5597 61.7998H34.5325C38.6074 61.7998 42.6834 61.3213 46.6472 60.3774L53.3193 58.7817V42.4488L48.8087 40.1577C45.2794 38.3762 41.1934 38.3103 37.6038 39.9793L33.7674 41.7629C32.6415 42.2863 31.3901 42.5629 30.1485 42.5629H20.1903C19.2623 42.5629 18.5074 43.3178 18.5074 44.2458V47.5086H37.8506C39.0402 47.5086 40.0045 48.4729 40.0045 49.6625C40.0045 50.852 39.0402 51.8163 37.8506 51.8163H18.1348C15.636 51.8465 12.7654 50.6759 10.9754 48.6776L3.86409 40.9585Z" fill="#969696"/>
</svg>
