<svg width="71" height="72" viewBox="0 0 71 72" fill="none" xmlns="http://www.w3.org/2000/svg">
<path d="M52.4762 0.0211572C52.4762 0.169257 52.4552 0.338514 52.4552 0.486614C52.4552 7.91276 52.4552 15.3178 52.4552 22.7439C52.4552 22.892 52.4552 23.0613 52.4552 23.2305C50.687 23.2305 48.961 23.2305 47.1928 23.2305C47.1928 17.3912 47.1928 11.5518 47.1928 5.69126C33.216 5.69126 19.2602 5.69126 5.30446 5.69126C5.30446 22.1515 5.30446 38.6117 5.30446 55.1143C11.1983 55.1143 17.0711 55.1143 22.986 55.1143C22.986 56.8915 22.986 58.6264 22.986 60.4247C22.8597 60.4247 22.7334 60.4459 22.6071 60.4459C15.1977 60.4459 7.76724 60.4459 0.35784 60.4459C0.231544 60.4459 0.126297 60.4247 0 60.4036C0 40.262 0 20.1416 0 0C17.4921 0.0211571 34.9842 0.0211572 52.4762 0.0211572Z" fill="#969696"/>
<path d="M34.4166 52.8081C32.9221 52.8081 31.4696 52.8081 29.9962 52.8081C29.6804 52.8081 29.5752 52.7447 29.5752 52.4062C29.5962 51.1156 29.5752 49.8038 29.5752 48.5133C29.5752 48.4075 29.5962 48.3017 29.5962 48.1536C31.196 48.1536 32.7958 48.1536 34.2903 48.1536C34.6902 46.8207 34.9849 45.4878 35.4901 44.2607C35.9953 43.0336 36.6899 41.8911 37.3214 40.664C36.2689 39.6273 35.1323 38.5059 33.9745 37.3846C35.1323 36.2421 36.2268 35.1843 37.3003 34.1264C38.3739 35.2054 39.5105 36.3268 40.6683 37.4692C42.8574 35.8401 45.2781 34.8246 47.9724 34.4226C47.9724 32.8147 47.9724 31.2067 47.9724 29.5776C49.5301 29.5776 51.0246 29.5776 52.5823 29.5776C52.5823 31.1856 52.5823 32.7935 52.5823 34.4226C55.2766 34.8246 57.6973 35.819 59.8864 37.4481C61.0231 36.3056 62.1598 35.1631 63.2543 34.0629C64.3699 35.1843 65.4435 36.2633 66.5591 37.3635C65.4435 38.4636 64.3068 39.585 63.1491 40.7063C64.7909 42.9489 65.8013 45.4032 66.2012 48.1324C67.801 48.1324 69.4008 48.1324 71.0005 48.1324C71.0005 49.6769 71.0005 51.2002 71.0005 52.787C69.4008 52.787 67.8221 52.787 66.2012 52.787C65.8013 55.5163 64.812 57.9493 63.1701 60.192C64.3068 61.3133 65.4645 62.4346 66.6012 63.5771C65.4645 64.6985 64.391 65.7775 63.2964 66.8353C62.2019 65.7351 61.0652 64.6138 59.9285 63.4502C57.7394 65.0793 55.2976 66.0948 52.6033 66.4968C52.6033 68.1259 52.6033 69.7338 52.6033 71.3418C51.0667 71.3418 49.5511 71.3418 48.0145 71.3418C48.0145 69.7338 48.0145 68.1259 48.0145 66.6026C46.7516 66.2218 45.4886 65.9467 44.3309 65.4813C43.1521 64.9947 42.0786 64.3176 40.8998 63.6829C39.7631 64.6985 38.5423 65.7775 37.3424 66.8353C36.2479 65.7351 35.1744 64.6773 34.0166 63.5136C34.5429 63.0059 35.1112 62.477 35.6585 61.948C36.2058 61.4191 36.732 60.869 37.2793 60.3189C37.4266 60.192 37.4477 60.0862 37.3214 59.9169C35.89 57.9493 34.9849 55.749 34.5429 53.3582C34.5218 53.2736 34.5218 53.1678 34.5008 53.062C34.4797 53.0409 34.4376 52.9351 34.4166 52.8081ZM50.33 38.8656C44.0151 38.8445 38.837 44.0703 38.8159 50.4809C38.8159 56.8915 43.9099 62.0538 50.2668 62.0961C56.5606 62.1384 61.7809 56.9338 61.8019 50.5443C61.844 44.1337 56.7079 38.8868 50.33 38.8656Z" fill="#969696"/>
<path d="M43.2571 19.2531C31.8904 19.2531 20.5658 19.2531 9.24121 19.2531C9.24121 17.497 9.24121 15.7621 9.24121 13.9426C9.36751 13.9426 9.49381 13.9426 9.6201 13.9426C20.6921 13.9426 31.7641 13.9426 42.8572 13.9426C43.194 13.9426 43.2782 14.0273 43.2782 14.3658C43.2571 15.8679 43.2782 17.3489 43.2782 18.8511C43.2571 18.978 43.2571 19.0838 43.2571 19.2531Z" fill="#969696"/>
<path d="M9.24121 27.9277C17.8504 27.9277 26.4386 27.9277 35.0689 27.9277C35.0689 29.6838 35.0689 31.4398 35.0689 33.217C26.4597 33.217 17.8715 33.217 9.24121 33.217C9.24121 31.461 9.24121 29.7049 9.24121 27.9277Z" fill="#969696"/>
<path d="M27.5959 41.8699C27.5959 43.6259 27.5959 45.3608 27.5959 47.138C21.4705 47.138 15.3662 47.138 9.21973 47.138C9.21973 45.4031 9.21973 43.6471 9.21973 41.8699C15.3451 41.8699 21.4495 41.8699 27.5959 41.8699Z" fill="#969696"/>
</svg>
