<svg width="80" height="63" viewBox="0 0 80 63" fill="none" xmlns="http://www.w3.org/2000/svg">
<path d="M80 37.5893C80 39.3567 80 41.1242 80 42.9173C79.8721 43.8395 79.7698 44.7616 79.6419 45.6838C78.8489 51.2424 76.9305 56.3912 74.0145 61.2069C73.2727 62.4365 72.3006 63 70.8938 63C50.3025 63 29.7112 63 9.11991 63C7.73863 63 6.76662 62.4365 6.0504 61.2581C0.704334 52.5744 -1.11179 43.1735 0.653175 33.1577C2.36698 23.4494 7.02241 15.3292 14.6962 9.07902C20.5794 4.28889 27.3323 1.31747 34.9038 0.344075C38.5872 -0.142623 42.2962 -0.117007 45.954 0.446537C50.456 1.11254 54.7277 2.57264 58.7436 4.74997C70.4845 11.1027 77.2374 21.0159 79.5396 34.0799C79.7442 35.2326 79.8465 36.4109 80 37.5893ZM40.4289 57.2365C43.9844 57.0572 47.0539 54.7005 48.1283 51.3705C49.2537 47.8868 48.1794 44.1981 45.3657 41.9695C44.9053 41.6109 44.8797 41.3291 45.0076 40.7912C46.4144 35.5656 47.7957 30.34 49.1514 25.1144C49.3049 24.474 49.4328 23.7568 49.3049 23.142C49.0491 21.7588 47.9492 20.9391 46.5935 20.9135C45.2634 20.8878 44.1635 21.81 43.7798 23.2701C42.3985 28.4957 41.0172 33.7213 39.6615 38.9469C39.4569 39.741 39.1755 40.1252 38.2547 40.3301C33.5225 41.3291 31.0669 45.3764 31.5017 49.5518C31.9366 53.7015 35.0828 57.3133 40.4289 57.2365ZM68.5405 45.7607C71.6867 45.7607 74.2191 43.3015 74.2447 40.1764C74.2702 36.9232 71.8146 34.3873 68.5917 34.3617C65.471 34.3361 62.8363 36.9232 62.8619 40.0484C62.8875 43.2503 65.3687 45.7607 68.5405 45.7607ZM11.4732 45.7607C14.5939 45.7607 17.1262 43.2503 17.1518 40.1252C17.1774 36.9232 14.5683 34.3105 11.422 34.3617C8.22463 34.4129 5.76902 36.8976 5.76902 40.0996C5.7946 43.3015 8.27579 45.7863 11.4732 45.7607ZM25.6953 20.0425C25.6697 16.8406 23.1629 14.3302 20.0167 14.3302C16.8448 14.3558 14.3381 16.8918 14.3381 20.0425C14.3637 23.2701 16.8193 25.7292 20.0167 25.7292C23.2141 25.7292 25.7208 23.2189 25.6953 20.0425ZM65.6756 20.1194C65.7012 16.9174 63.2456 14.4071 60.0482 14.3558C56.9275 14.279 54.3184 16.8662 54.3184 20.0169C54.3184 23.2445 56.7485 25.7292 59.9459 25.7548C63.1433 25.7548 65.65 23.2957 65.6756 20.1194ZM45.6982 11.5125C45.6982 8.28493 43.2426 5.80021 40.0452 5.80021C36.8478 5.7746 34.341 8.28493 34.341 11.4613C34.341 14.6888 36.7966 17.148 40.0196 17.148C43.1915 17.1223 45.6727 14.6632 45.6982 11.5125Z" fill="#969696"/>
</svg>
