<svg width="82" height="82" viewBox="0 0 82 82" fill="none" xmlns="http://www.w3.org/2000/svg">
<g clip-path="url(#clip0)">
<path d="M57.8164 33.793H48.207V47.9646L43.4023 44.9232V24.1836H53.0117V0H28.9883V24.1836H38.5977V44.9232L33.793 47.9646V33.793H24.1836V24.1836H0V48.207H24.1836V38.5977H28.9883V51.0061L26.5866 52.5263L41 62.1355L55.4134 52.5264L53.0117 51.0061V38.5977H57.8164V48.207H82V24.1836H57.8164V33.793ZM38.5977 9.76953H43.4023V14.5742H38.5977V9.76953ZM14.5742 38.5977H9.76953V33.793H14.5742V38.5977ZM67.4258 33.793H72.2305V38.5977H67.4258V33.793Z" fill="#969696"/>
<path d="M43.4023 66.3096V82L57.8164 72.39V56.6995L43.4023 66.3096Z" fill="#969696"/>
<path d="M24.1836 56.6995V72.39L38.5977 82V66.3096L24.1836 56.6995Z" fill="#969696"/>
</g>
<defs>
<clipPath id="clip0">
<rect width="82" height="82" fill="white"/>
</clipPath>
</defs>
</svg>
