<svg width="43" height="24" viewBox="0 0 43 24" fill="none" xmlns="http://www.w3.org/2000/svg">
<path d="M38.3266 21.221C38.4293 21.221 38.532 21.221 38.6348 21.221C39.6961 21.221 40.7574 21.221 41.8016 21.221C42.0926 21.221 42.1953 21.3389 42.2124 21.6252C42.2295 22.0463 42.161 22.4337 41.8358 22.7537C41.5619 23.0231 41.2367 23.141 40.8601 23.141C38.8402 23.141 36.8031 23.141 34.7832 23.141C24.1017 23.141 13.4031 23.141 2.72154 23.141C2.48189 23.141 2.24224 23.141 2.01971 23.141C1.35211 23.1073 0.821461 22.5852 0.804343 21.9284C0.787225 21.3558 0.787225 21.221 1.47194 21.2379C2.53324 21.2547 3.59455 21.2379 4.69009 21.2379C4.69009 21.1537 4.69009 21.0863 4.69009 21.0189C4.69009 19.301 4.69009 17.6 4.69009 15.8821C4.69009 11.3179 4.69009 6.75366 4.69009 2.20629C4.69009 1.4484 5.23786 0.892609 6.00816 0.892609C9.91103 0.892609 13.7968 0.892609 17.6996 0.892609C22.4413 0.892609 27.1829 0.892609 31.9417 0.892609C33.6192 0.892609 35.2968 0.892609 36.9743 0.892609C37.796 0.892609 38.3266 1.43156 38.3266 2.23998C38.3266 6.63577 38.3266 11.0316 38.3266 15.4273C38.3266 17.3137 38.3266 19.2168 38.3266 21.1031C38.3095 21.1031 38.3095 21.1537 38.3266 21.221ZM5.97393 19.941C16.3302 19.941 26.6694 19.941 37.0086 19.941C37.0086 13.9958 37.0086 8.08419 37.0086 2.15577C26.6523 2.15577 16.3131 2.15577 5.97393 2.15577C5.97393 8.10103 5.97393 14.0126 5.97393 19.941ZM25.0432 21.221C22.6638 21.221 20.3187 21.221 17.9393 21.221C17.9393 21.4231 18.0078 21.6084 18.1961 21.6758C18.4015 21.76 18.624 21.8442 18.8294 21.8442C20.6097 21.861 22.3728 21.861 24.1531 21.8442C24.3071 21.8442 24.4783 21.8105 24.6152 21.76C24.9063 21.6926 25.0432 21.4905 25.0432 21.221Z" fill="#969696"/>
<path d="M17.9051 13.1873C18.025 13.6589 18.1448 14.0968 18.2475 14.5347C18.3331 14.5347 18.3844 14.5347 18.4529 14.5347C20.6269 14.5347 22.7837 14.5347 24.9577 14.5347C25.0946 14.5347 25.2316 14.5347 25.3685 14.5347C25.6595 14.5347 25.8478 14.72 25.8478 14.9726C25.8478 15.2252 25.6595 15.4273 25.3685 15.4273C24.9063 15.4273 24.4613 15.4273 23.9991 15.4273C21.9792 15.4273 19.9764 15.4273 17.9565 15.4273C17.6141 15.4273 17.4601 15.2926 17.3916 14.9726C17.1691 14.0463 16.9294 13.12 16.6898 12.1937C16.5015 11.4358 16.3132 10.6947 16.1249 9.93681C15.9195 9.09471 15.6969 8.23576 15.4744 7.37681C15.3546 6.88839 15.2347 6.39997 15.0978 5.91155C14.6185 5.91155 14.1563 5.91155 13.677 5.91155C13.5401 5.91155 13.4031 5.91155 13.2491 5.91155C12.9752 5.89471 12.7869 5.72629 12.7869 5.45681C12.7869 5.18734 12.9752 5.00208 13.2662 5.00208C13.9851 5.00208 14.7212 5.00208 15.4402 5.00208C15.6798 5.00208 15.8339 5.13681 15.9023 5.35576C16.0222 5.77681 16.142 6.21471 16.2276 6.6526C16.2618 6.80418 16.3303 6.82102 16.4501 6.82102C18.7953 6.82102 21.1404 6.82102 23.4855 6.82102C24.6324 6.82102 25.7793 6.83786 26.9262 6.82102C27.4055 6.80418 27.6794 7.03997 27.5254 7.59576C27.2344 8.65681 26.9776 9.7347 26.7037 10.8126C26.5325 11.4694 26.3785 12.1263 26.2073 12.7831C26.1217 13.1031 25.9848 13.2042 25.591 13.2042C23.982 13.2042 22.3729 13.2042 20.7809 13.2042C19.8908 13.2042 18.9836 13.2042 18.0934 13.2042C18.0421 13.1873 17.9907 13.1873 17.9051 13.1873ZM26.5325 7.74734C25.9163 7.74734 25.3172 7.74734 24.718 7.74734C24.6496 8.35365 24.564 8.94313 24.4955 9.54944C25.009 9.54944 25.5055 9.54944 26.0019 9.54944C26.0361 9.54944 26.1046 9.48207 26.1217 9.43155C26.2586 8.87576 26.3956 8.30313 26.5325 7.74734ZM18.3502 7.74734C17.734 7.74734 17.1519 7.74734 16.5357 7.74734C16.6726 8.33681 16.8267 8.8926 16.9637 9.46523C16.9808 9.49892 17.0321 9.54944 17.0664 9.54944C17.5628 9.54944 18.0592 9.54944 18.5727 9.54944C18.5043 8.92628 18.4187 8.35365 18.3502 7.74734ZM21.0548 9.5326C21.0548 8.92628 21.0548 8.33681 21.0548 7.74734C20.4557 7.74734 19.8737 7.74734 19.2746 7.74734C19.3601 8.35365 19.4286 8.94313 19.5142 9.5326C20.0277 9.5326 20.5413 9.5326 21.0548 9.5326ZM23.7766 7.74734C23.1603 7.74734 22.5954 7.74734 22.0134 7.74734C22.0134 8.35365 22.0134 8.94313 22.0134 9.5326C22.527 9.5326 23.0405 9.5326 23.554 9.5326C23.6225 8.92628 23.691 8.33681 23.7766 7.74734ZM17.6826 12.261C18.0934 12.261 18.5043 12.261 18.9322 12.261C18.8637 11.6547 18.7781 11.0821 18.7097 10.4758C18.2133 10.4758 17.734 10.4758 17.2375 10.4758C17.3745 11.0652 17.5285 11.6715 17.6826 12.261ZM24.3586 10.4758C24.2901 11.0821 24.2045 11.6715 24.136 12.261C24.564 12.261 24.9748 12.261 25.3856 12.261C25.5397 11.6547 25.6938 11.0652 25.8307 10.4758C25.3343 10.4758 24.855 10.4758 24.3586 10.4758ZM19.634 10.4758C19.7025 11.0821 19.7881 11.6715 19.8566 12.261C20.2674 12.261 20.6611 12.261 21.0548 12.261C21.0548 11.6547 21.0548 11.0652 21.0548 10.4758C20.5755 10.4758 20.1133 10.4758 19.634 10.4758ZM21.9963 12.261C22.4071 12.261 22.8008 12.261 23.1945 12.261C23.263 11.6547 23.3486 11.0821 23.4171 10.4758C22.9207 10.4758 22.4585 10.4758 21.9963 10.4758C21.9963 11.0652 21.9963 11.6547 21.9963 12.261Z" fill="#969696"/>
<path d="M18.6928 17.7179C18.1622 17.7179 17.7685 17.3137 17.7685 16.8084C17.7685 16.3032 18.1793 15.9158 18.6928 15.9158C19.2064 15.9158 19.6172 16.32 19.6172 16.8421C19.6172 17.3305 19.2064 17.7179 18.6928 17.7179Z" fill="#969696"/>
<path d="M24.3758 17.7179C23.8451 17.7179 23.4514 17.3305 23.4514 16.8084C23.4514 16.3032 23.8451 15.9158 24.3587 15.899C24.8893 15.899 25.283 16.2863 25.283 16.8084C25.283 17.3305 24.8893 17.7179 24.3758 17.7179Z" fill="#969696"/>
</svg>
