<svg width="77" height="79" viewBox="0 0 77 79" fill="none" xmlns="http://www.w3.org/2000/svg">
<path d="M24.7136 4.70763C25.6523 2.5892 27.2069 1.36816 29.5536 1.41229C31.7683 1.45642 33.2349 2.69218 34.1296 4.70763C34.3203 4.70763 34.5256 4.70763 34.7309 4.70763C40.6709 4.70763 46.5963 4.70763 52.5363 4.70763C55.2789 4.70763 57.4936 6.94376 57.4936 9.69479C57.4936 14.9909 57.4936 20.287 57.4936 25.5831C57.4936 25.7743 57.4936 25.9655 57.4936 26.2304C57.2736 26.2304 57.0829 26.2304 56.8923 26.2304C51.6856 26.2304 46.4643 26.2304 41.2576 26.2304C38.6176 26.2304 36.4176 27.1866 34.6869 29.1873C33.4696 30.5996 32.7949 32.262 32.7509 34.1304C32.6923 36.7048 32.7216 39.2646 32.7216 41.8391C32.7216 51.8575 32.7216 61.8907 32.7216 71.9091C32.7216 72.1151 32.7216 72.321 32.7216 72.6006C32.5163 72.6006 32.3403 72.6006 32.1496 72.6006C23.5109 72.6006 14.8869 72.6006 6.24828 72.6006C3.57894 72.6006 1.34961 70.3497 1.34961 67.6575C1.34961 48.3121 1.34961 28.9814 1.34961 9.63594C1.34961 6.94376 3.59361 4.70763 6.30694 4.70763C12.2469 4.70763 18.1723 4.70763 24.1123 4.70763C24.3176 4.70763 24.5229 4.70763 24.7136 4.70763ZM27.7643 54.3585C27.6763 48.9153 23.4376 44.5607 18.0109 44.4871C12.4083 44.4136 7.90561 48.8858 7.94961 54.4615C7.99361 59.9488 12.3203 64.2739 17.6883 64.3328C23.3056 64.4063 27.7643 59.9194 27.7643 54.3585ZM34.1003 8.04711C33.2789 9.95959 31.8856 11.1659 29.8176 11.313C27.3683 11.4896 25.6963 10.2538 24.7136 8.04711C21.8683 8.04711 19.0523 8.04711 16.1923 8.04711C16.1923 9.7095 16.1776 11.3425 16.1923 12.9754C16.2069 14.8585 17.6443 16.3002 19.5363 16.3002C26.1363 16.3002 32.7363 16.3002 39.3363 16.3002C40.7149 16.3002 41.9616 15.4322 42.4016 14.1229C42.5336 13.7404 42.6069 13.3138 42.6069 12.9166C42.6363 11.2983 42.6216 9.68007 42.6216 8.04711C39.7616 8.04711 36.9456 8.04711 34.1003 8.04711ZM6.32161 37.8082C14.0363 37.8082 21.7216 37.8082 29.3776 37.8082C29.3776 36.6901 29.3776 35.6162 29.3776 34.5128C28.2776 34.5128 27.2216 34.5128 26.1069 34.5128C26.1069 32.2914 26.1069 30.1142 26.1069 27.9516C24.9776 27.9516 23.9069 27.9516 22.7923 27.9516C22.7923 30.1583 22.7923 32.3209 22.7923 34.4981C21.6776 34.4981 20.6069 34.4981 19.4776 34.4981C19.4776 31.1734 19.4776 27.8927 19.4776 24.6268C18.3629 24.6268 17.3069 24.6268 16.1923 24.6268C16.1923 27.9369 16.1923 31.2175 16.1923 34.4981C15.0629 34.4981 13.9923 34.4981 12.8776 34.4981C12.8776 32.8505 12.8776 31.2322 12.8776 29.5993C11.7629 29.5993 10.6923 29.5993 9.56294 29.5993C9.56294 31.2616 9.56294 32.8799 9.56294 34.557C8.44828 34.557 7.39228 34.557 6.30694 34.557C6.32161 35.6456 6.32161 36.7048 6.32161 37.8082ZM31.0789 6.39944C31.0936 5.51676 30.3603 4.73706 29.4803 4.70763C28.5709 4.67821 27.7789 5.42849 27.7643 6.32588C27.7496 7.22328 28.4829 7.98827 29.3629 8.01769C30.2723 8.06182 31.0643 7.31154 31.0789 6.39944Z" fill="#969696"/>
<path d="M75.6508 53.5199C75.6508 59.8752 75.6508 66.2158 75.6508 72.5711C75.6508 75.3663 73.4508 77.5877 70.6788 77.5877C60.7935 77.5877 50.8935 77.5877 41.0081 77.5877C38.2361 77.5877 36.0361 75.3663 36.0361 72.5711C36.0361 59.9046 36.0361 47.2382 36.0361 34.5864C36.0361 31.7618 38.2361 29.5698 41.0668 29.5698C50.9228 29.5698 60.7788 29.5698 70.6348 29.5698C73.4801 29.5698 75.6655 31.7765 75.6655 34.6452C75.6508 40.927 75.6508 47.2235 75.6508 53.5199ZM55.8655 36.1752C52.0668 36.1752 48.2681 36.1752 44.4695 36.1752C43.3108 36.1752 42.6215 36.8667 42.6215 38.0436C42.6215 40.1179 42.6215 42.1775 42.6215 44.2518C42.6215 45.4287 43.2961 46.1201 44.4548 46.1201C52.0375 46.1201 59.6201 46.1201 67.2028 46.1201C68.3761 46.1201 69.0361 45.4434 69.0508 44.2518C69.0508 42.2216 69.0508 40.1767 69.0508 38.1465C69.0508 36.7931 68.4201 36.1752 67.0561 36.1752C63.3308 36.1752 59.6055 36.1752 55.8655 36.1752ZM45.8775 54.4026C46.4495 54.4026 47.0068 54.4173 47.5788 54.4026C48.3415 54.3879 48.9721 53.9613 49.1188 53.211C49.2508 52.5343 49.2215 51.8134 49.2215 51.1073C49.2215 50.151 48.5175 49.4449 47.5788 49.4302C46.4788 49.4154 45.3788 49.4154 44.2788 49.4302C43.3255 49.4449 42.6361 50.151 42.6215 51.1073C42.6068 51.6369 42.6068 52.1812 42.6215 52.7108C42.6361 53.667 43.3255 54.3732 44.2788 54.3879C44.8215 54.4173 45.3495 54.4026 45.8775 54.4026ZM55.8215 54.4026C56.3641 54.4026 56.9215 54.4173 57.4641 54.4026C58.2561 54.3879 58.8868 53.976 59.0335 53.1816C59.1655 52.5048 59.1361 51.784 59.1361 51.0778C59.1361 50.151 58.4321 49.4449 57.5081 49.4302C56.3935 49.4154 55.2788 49.4154 54.1641 49.4302C53.4015 49.4449 52.7855 49.8715 52.6535 50.6365C52.5215 51.3132 52.5508 52.0341 52.5508 52.7402C52.5508 53.667 53.2548 54.3732 54.1788 54.3879C54.7215 54.4173 55.2641 54.4026 55.8215 54.4026ZM65.7948 65.951C65.7948 65.9657 65.7948 65.9804 65.7948 65.9952C65.2521 65.9952 64.6948 65.9952 64.1521 65.9952C63.2868 66.0099 62.5828 66.5395 62.4801 67.378C62.3921 68.1136 62.3921 68.8639 62.4801 69.5994C62.5681 70.3939 63.2575 70.9529 64.0495 70.9676C65.1788 70.9823 66.3228 70.997 67.4521 70.9676C68.3468 70.9529 69.0215 70.232 69.0508 69.3346C69.0655 68.7609 69.0655 68.2019 69.0508 67.6281C69.0361 66.8778 68.5961 66.2452 67.8481 66.0981C67.1735 65.9657 66.4841 65.9952 65.7948 65.951ZM45.9215 62.6851C46.4641 62.6851 47.0215 62.6998 47.5641 62.6851C48.5175 62.6704 49.2068 61.9642 49.2361 61.0227C49.2508 60.4931 49.2508 59.9488 49.2361 59.4192C49.2215 58.4482 48.5175 57.7274 47.5495 57.7274C46.4641 57.7127 45.3788 57.7127 44.3081 57.7274C43.3695 57.7421 42.6508 58.4629 42.6361 59.3898C42.6215 59.9194 42.6215 60.4637 42.6361 60.9933C42.6508 61.979 43.3401 62.6704 44.3228 62.6851C44.8508 62.6998 45.3788 62.6851 45.9215 62.6851ZM55.8361 57.7127C55.2935 57.7127 54.7361 57.6979 54.1935 57.7127C53.2548 57.7421 52.5508 58.4482 52.5361 59.3898C52.5215 59.9194 52.5215 60.4637 52.5361 60.9933C52.5508 61.9495 53.2401 62.6557 54.1935 62.6704C55.2935 62.6851 56.3935 62.6851 57.4935 62.6704C58.4468 62.6557 59.1215 61.9642 59.1508 60.9933C59.1655 60.4637 59.1655 59.9194 59.1508 59.3898C59.1361 58.4482 58.4321 57.7274 57.4935 57.6979C56.9361 57.6979 56.3935 57.7127 55.8361 57.7127ZM65.7801 57.7127C65.2521 57.7127 64.7095 57.7127 64.1815 57.7127C64.1521 57.7127 64.1081 57.7127 64.0788 57.7127C63.3161 57.7421 62.6708 58.154 62.5681 58.919C62.4508 59.7575 62.4508 60.6255 62.5681 61.4641C62.6708 62.2143 63.3308 62.6704 64.0788 62.6704C65.1935 62.6851 66.3081 62.6851 67.4228 62.6704C68.3321 62.6557 69.0361 61.9348 69.0508 61.0227C69.0655 60.4931 69.0655 59.9488 69.0508 59.4192C69.0361 58.4188 68.3321 57.7127 67.3201 57.7127C66.8068 57.7127 66.2935 57.7127 65.7801 57.7127ZM65.7068 54.4026C66.2788 54.4026 66.8361 54.4173 67.4081 54.4026C68.3321 54.3732 69.0215 53.6817 69.0508 52.7549C69.0655 52.2106 69.0655 51.6516 69.0508 51.1073C69.0215 50.151 68.3321 49.4596 67.3788 49.4449C66.2935 49.4302 65.2081 49.4302 64.1375 49.4449C63.1695 49.4596 62.4655 50.1657 62.4361 51.1367C62.4215 51.6663 62.4215 52.2106 62.4361 52.7402C62.4508 53.6817 63.1548 54.3879 64.1081 54.4173C64.6508 54.4173 65.1788 54.4026 65.7068 54.4026ZM45.8775 70.9676C46.4495 70.9676 47.0068 70.9823 47.5788 70.9676C48.5175 70.9529 49.2215 70.232 49.2361 69.2905C49.2508 68.7609 49.2508 68.2166 49.2361 67.687C49.2215 66.7307 48.5321 66.0099 47.5935 65.9952C46.4935 65.9804 45.3935 65.9804 44.2935 65.9952C43.3548 66.0099 42.6508 66.716 42.6361 67.6722C42.6215 68.2019 42.6215 68.7462 42.6361 69.2758C42.6508 70.2173 43.3548 70.9382 44.2935 70.9676C44.8068 70.9823 45.3495 70.9676 45.8775 70.9676ZM55.7921 70.9676C56.3348 70.9676 56.8921 70.9676 57.4348 70.9676C58.4028 70.9529 59.1215 70.2467 59.1361 69.2758C59.1508 68.7609 59.1508 68.246 59.1361 67.7311C59.1215 66.716 58.4321 66.0099 57.4201 65.9952C56.3495 65.9804 55.2935 65.9804 54.2228 65.9952C53.2401 66.0099 52.5361 66.716 52.5215 67.687C52.5068 68.2166 52.5068 68.7609 52.5215 69.2905C52.5361 70.232 53.2401 70.9529 54.1788 70.9676C54.7361 70.9823 55.2641 70.9676 55.7921 70.9676Z" fill="#969696"/>
<path d="M17.8496 47.8267C17.8496 49.9893 17.8496 52.1518 17.8496 54.3732C20.0496 54.3732 22.2203 54.3732 24.391 54.3732C24.655 55.9915 23.4816 58.8455 21.1056 60.1695C18.6563 61.5377 15.503 61.214 13.4203 59.3015C11.2643 57.3155 10.6336 54.1967 11.895 51.534C13.083 49.0624 15.679 47.6796 17.8496 47.8267Z" fill="#969696"/>
</svg>
