<svg width="80" height="78" viewBox="0 0 80 78" fill="none" xmlns="http://www.w3.org/2000/svg">
<path d="M32.2661 0C37.3691 0 42.4721 0 47.5949 0C48.6473 0.424756 49.1834 1.21635 49.4217 2.27823C49.7394 3.68765 50.2358 5.05845 50.4145 6.48718C50.6528 8.30204 51.4867 9.44116 53.373 9.76938C53.7106 9.8273 54.1474 9.84661 54.4254 9.69215C56.272 8.66888 58.0988 7.56837 59.9255 6.50648C61.3552 5.67628 62.3083 5.79212 63.4996 6.95055C66.6369 10.0011 69.7543 13.0516 72.8915 16.1021C74.0035 17.1833 74.1226 18.0907 73.2887 19.4422C72.5143 20.6972 71.8392 22.0294 70.9456 23.2071C69.8536 24.6165 69.5557 25.9487 70.5882 27.4933C70.8464 27.8794 71.0251 28.169 71.5016 28.2849C73.5071 28.7289 75.4927 29.2502 77.4981 29.675C78.6299 29.926 79.5235 30.4086 80 31.4705C80 36.4325 80 41.3944 80 46.3756C79.5433 47.4182 78.6895 47.9395 77.5776 48.1518C75.9692 48.4801 74.4006 48.9627 72.7923 49.233C71.442 49.4647 70.4691 49.9281 70.1911 51.3375C70.1514 51.5499 70.0323 51.7623 69.9131 51.9553C69.6749 52.3222 69.7543 52.6311 69.9926 52.9979C71.1244 54.8128 72.2561 56.647 73.3681 58.4618C74.1425 59.7168 74.0233 60.6435 72.971 61.6668C69.794 64.7752 66.617 67.8837 63.4202 70.9728C62.348 72.0154 61.375 72.1119 60.0447 71.359C58.4562 70.4322 56.828 69.5634 55.3189 68.5594C54.3857 67.9416 53.6113 67.9223 52.559 68.347C51.4867 68.7718 50.9308 69.3124 50.7322 70.4515C50.4344 72.0926 49.9181 73.7144 49.5011 75.3362C49.4614 75.3362 49.4217 75.3169 49.382 75.3169C49.382 75.0659 49.382 74.8149 49.382 74.5639C49.382 69.1 49.4018 63.6168 49.3621 58.1529C49.3621 57.5158 49.5607 57.1876 50.1365 56.8593C56.5302 53.2489 60.2631 47.9009 60.9779 40.6993C61.8516 31.9532 56.689 23.5546 48.3693 20.0794C46.2844 19.2105 44.696 20.2338 44.696 22.4155C44.696 27.2809 44.696 32.1463 44.7158 37.0117C44.7158 37.533 44.557 37.8419 44.1201 38.1122C42.9288 38.8458 41.7573 39.5988 40.6056 40.3904C40.1886 40.68 39.8908 40.7186 39.454 40.4097C38.2825 39.5988 37.0911 38.8265 35.8799 38.0929C35.443 37.8226 35.3239 37.533 35.3239 37.0503C35.3438 32.1849 35.3438 27.3195 35.3438 22.4541C35.3438 20.2145 33.7553 19.2105 31.6307 20.0987C23.033 23.7477 17.8307 32.5903 19.1412 41.5874C20.134 48.4221 23.8471 53.5385 30.0025 56.9366C30.4989 57.2069 30.6776 57.4965 30.6776 58.0564C30.6577 63.5975 30.6577 69.1579 30.6577 74.6991C30.6577 74.9115 30.6577 75.1238 30.6577 75.3169C30.1415 73.7916 29.6649 72.2664 29.3869 70.7025C29.1487 69.4476 28.692 68.5401 27.2822 68.3084C27.0241 68.2698 26.8057 68.0574 26.5674 68.0381C26.2497 67.9995 25.8526 67.9609 25.5944 68.1154C23.7081 69.1772 21.8417 70.2971 19.9553 71.3783C18.6845 72.1119 17.6719 72.0154 16.6394 71.0114C13.4227 67.903 10.2259 64.7752 7.02904 61.6475C5.99653 60.6435 5.87739 59.7168 6.61206 58.5004C7.44602 57.1296 8.20055 55.7009 9.15364 54.4266C10.1266 53.1331 10.4244 51.9167 9.45148 50.5459C9.41177 50.488 9.39191 50.4108 9.37205 50.3335C9.27277 49.8509 8.93522 49.6578 8.45867 49.542C6.31422 49.04 4.16977 48.538 2.02532 48.0167C0.635394 47.6885 0 46.9162 0 45.5454C0 41.1048 0 36.6834 0 32.2428C0 30.9106 0.65525 30.119 1.9856 29.7908C3.73294 29.3661 5.46041 28.8834 7.20774 28.5745C8.55795 28.3428 9.5309 27.8601 9.78903 26.4507C9.82874 26.2383 9.94788 26.0259 10.067 25.8329C10.3053 25.466 10.2259 25.1571 9.98759 24.7903C8.8558 22.9754 7.724 21.1606 6.61206 19.3264C5.83768 18.0521 5.95681 17.1447 7.00918 16.1214C10.1663 13.0323 13.3433 9.94314 16.5004 6.87332C17.5925 5.81143 18.6051 5.67628 19.9355 6.44856C21.2261 7.20154 22.5962 7.85798 23.8074 8.7268C25.2569 9.78869 26.627 10.0783 28.2353 9.11294C28.6324 8.86195 28.9303 8.66888 29.0295 8.20551C29.5061 6.21688 30.0422 4.22825 30.4989 2.23962C30.6974 1.21635 31.2137 0.424756 32.2661 0Z" fill="#969696"/>
<path d="M49.3011 25.8908C54.3842 29.0764 57.6207 35.9691 55.8536 42.8424C54.0864 49.7543 47.514 54.8128 40.1871 54.8707C32.5426 54.9479 25.9305 50.1018 24.0243 42.9775C22.1579 35.9498 25.3348 29.2116 30.5371 25.8715C30.5371 26.1997 30.5371 26.47 30.5371 26.721C30.5371 30.6403 30.557 34.5789 30.5172 38.4983C30.5172 39.6181 30.9541 40.429 31.9072 41.0275C34.0516 42.379 36.1762 43.7498 38.281 45.1592C39.3929 45.8929 40.4254 45.9122 41.5373 45.1785C43.6421 43.7884 45.7667 42.3983 47.9111 41.0468C48.9039 40.429 49.3408 39.5988 49.3209 38.4404C49.3011 34.2893 49.3011 30.1383 49.3011 25.8908Z" fill="#969696"/>
<path d="M44.5794 77.8076C41.462 77.8076 38.424 77.8076 35.3066 77.8076C35.3066 71.5328 35.3066 65.2773 35.3066 58.9446C38.3843 59.601 41.462 59.601 44.5794 58.9446C44.5794 65.258 44.5794 71.4942 44.5794 77.8076Z" fill="#969696"/>
</svg>
