<?xml version="1.0" encoding="utf-8"?>
<!-- Generator: Adobe Illustrator 22.0.0, SVG Export Plug-In . SVG Version: 6.00 Build 0)  -->
<svg version="1.1" id="Calque_1" xmlns="http://www.w3.org/2000/svg" xmlns:xlink="http://www.w3.org/1999/xlink" x="0px" y="0px"
	 viewBox="0 0 1080 1080" style="enable-background:new 0 0 1080 1080;" xml:space="preserve">
<g>
	<path fill="#969696" d="M38.9,1022.5c0-282.2,0-564.4,0-846.6c3.5-4.4,6.4-9.4,10.6-13c45.4-38.2,90.8-76.4,136.8-113.8c6.9-5.6,17.2-9.7,25.9-9.7
		c218-0.5,436-0.5,654,0c9.2,0,20.2,3.9,27.4,9.7c43.8,35.3,86.8,71.6,129.7,107.9c6.6,5.5,11.9,12.6,17.7,19
		c0,282.2,0,564.4,0,846.6c-6.7,13.9-17.8,18.5-33,18.5c-312.1-0.3-624.1-0.3-936.2,0C56.7,1041,45.6,1036.5,38.9,1022.5z
		 M992.6,992.3c0-262.6,0-523.5,0-785c-302.1,0-603.6,0-904.7,0c0,262.4,0,523.6,0,785C389.9,992.3,690.7,992.3,992.6,992.3z
		 M131.3,157c130,0,257.1,0,384.1,0c0-23.7,0-46.4,0-69.4c-2.4-0.3-4.1-0.8-5.8-0.8c-95.8,0-191.6-0.1-287.4,0.1
		c-3.7,0-8.1,1.1-10.9,3.4C185.3,111.7,159.5,133.5,131.3,157z M564.2,156.9c128.1,0,255.1,0,384.6,0c-26.3-22-50.3-42.6-75-62.2
		c-5.6-4.4-14-7.6-21.1-7.6c-91.4-0.5-182.9-0.3-274.3-0.3c-4.6,0-9.2,0-14.2,0C564.2,111.2,564.2,133.6,564.2,156.9z"/>
	<path fill="#969696" d="M541,301.6c26.3,0,52.7-0.2,79,0.1c37.3,0.4,62.9,24.9,62.8,59.7c-0.2,34.3-26.5,59.3-63.5,59.4
		c-54,0.2-107.9,0.4-161.9-0.1c-31-0.3-56.1-22.3-59.7-50.8c-3.8-30.4,13.5-57.8,42.3-65.8c7.1-2,14.7-2.3,22.1-2.3
		C488.4,301.5,514.7,301.6,541,301.6z M540,349.4c-26.4,0-52.7,0-79.1,0c-9,0-17.4,3.5-14.9,13.2c1.2,4.7,10.9,10.2,16.9,10.3
		c51.4,0.8,102.8,0.4,154.2,0.5c8.8,0,17.2-2.4,17.4-11.9c0.2-10.9-9-12.2-18.1-12.1C591,349.4,565.5,349.3,540,349.4z"/>
	<path fill="#969696" d="M612.1,920.6c0-15.9,0-30.7,0-46c103.2,0,205.6,0,308.8,0c0,15.6,0,30.3,0,46C818,920.6,715.6,920.6,612.1,920.6z"/>
	<path fill="#969696" d="M873.8,753.7c0,33.3,0,63.9,0,95.3c-15.9,0-30.6,0-47.1,0c0-30.7,0-61.6,0-94.2c-15.8,0-29.9,0-43.1,0
		c23.1-23.2,45.7-45.9,67.6-68c20.8,20.7,43.3,43.2,67.1,66.9C903.8,753.7,889.8,753.7,873.8,753.7z"/>
	<path fill="#969696" d="M747.4,754.1c-10.7,0-24.6,0-40.1,0c0,31.9,0,62.8,0,94.8c-16.6,0-31.7,0-48.2,0c0-31.3,0-62.2,0-94.3c-15.3,0-29.2,0-41,0
		c21.9-21.9,44.2-44.2,64.8-64.8C702.5,709.4,725.3,732,747.4,754.1z"/>
</g>
</svg>
