<svg width="23" height="31" viewBox="0 0 23 31" fill="none" xmlns="http://www.w3.org/2000/svg">
<path d="M22.1774 14.1727C22.1774 14.2675 22.1774 14.386 22.1774 14.4808C21.9404 15.6421 21.2768 16.3768 20.1392 16.8034C19.2149 17.1352 18.8594 17.9647 18.7646 18.9127C18.5987 20.7613 17.39 21.6382 15.5888 21.1879C14.5223 20.9272 13.6928 21.2353 13.0055 22.0174C11.7731 23.4394 10.28 23.4394 9.02386 21.97C8.33656 21.1879 7.53076 20.9035 6.51165 21.1642C4.66304 21.6145 3.45433 20.7613 3.28843 18.8416C3.19363 17.7277 2.64853 17.0167 1.62942 16.6138C0.0178099 15.9739 -0.456193 14.4334 0.468112 12.964C1.06062 11.9923 1.06062 11.068 0.468112 10.0963C-0.456193 8.62685 0.0415101 7.08634 1.62942 6.44644C2.67223 6.04354 3.21733 5.33253 3.33583 4.21863C3.54913 2.22781 4.66304 1.44571 6.63015 1.91971C7.53076 2.13301 8.26546 1.87231 8.92906 1.27981C9.42677 0.829505 9.94817 0.426603 10.4459 0C10.8725 0 11.2754 0 11.702 0C12.1997 0.426603 12.7211 0.829505 13.2188 1.27981C13.8824 1.87231 14.6171 2.15671 15.5177 1.94341C15.9443 1.84861 16.3946 1.75381 16.8212 1.80121C17.9825 1.94341 18.7172 2.79662 18.812 4.05272C18.8831 5.07183 19.2149 5.92504 20.2103 6.30424C21.2768 6.70714 21.9404 7.39444 22.2248 8.48465C22.2248 8.65055 22.2248 8.79275 22.2248 8.95865C21.9878 9.43266 21.7508 9.90666 21.5138 10.3807C21.1346 11.1154 21.1346 11.8738 21.4901 12.6085C21.6797 13.1773 21.9167 13.675 22.1774 14.1727ZM11.0147 18.1306C14.6408 18.1543 17.6033 15.2155 17.627 11.5894C17.627 7.96325 14.6882 5.00073 11.0621 5.00073C7.43595 4.97703 4.47344 7.93955 4.44974 11.5657C4.44974 15.1918 7.36485 18.1306 11.0147 18.1306Z" fill="#969696"/>
<path d="M11.7498 25.2881C12.9822 24.98 13.9539 24.4349 14.6886 23.5106C14.7597 23.4158 15.0204 23.3684 15.1626 23.4158C16.3713 23.7239 17.5326 23.558 18.6939 22.9655C19.2627 24.6245 19.8552 26.2361 20.3766 27.8714C20.4477 28.1084 20.3292 28.535 20.1396 28.7009C19.95 28.8668 19.5471 28.8668 19.2864 28.7957C18.6939 28.6298 18.1251 28.3454 17.5326 28.1084C16.4187 27.6581 16.3713 27.6818 15.7788 28.7483C15.4944 29.2697 15.2337 29.8148 14.8782 30.3125C14.7123 30.5495 14.3568 30.7865 14.0724 30.7865C13.8354 30.7865 13.5036 30.4784 13.4088 30.2414C12.8637 28.6061 12.3423 26.9945 11.7498 25.2881Z" fill="#969696"/>
<path d="M3.3829 22.9655C4.54421 23.5343 5.63441 23.7239 6.81942 23.4395C7.00902 23.3921 7.26972 23.4632 7.43562 23.558C8.33623 24.1979 9.21313 24.8378 10.2322 25.5962C9.87674 26.6627 9.45014 27.9899 8.95243 29.2934C8.73913 29.8385 8.78653 30.668 7.98073 30.7628C7.10382 30.8576 7.00902 30.0044 6.70092 29.483C5.46851 27.3974 5.87141 27.5159 3.6436 28.4165C3.3592 28.535 3.0748 28.7009 2.7667 28.7483C2.45859 28.7957 2.05569 28.7957 1.86609 28.6298C1.67649 28.4876 1.60539 28.0373 1.67649 27.8003C2.22159 26.1887 2.7904 24.6008 3.3829 22.9655Z" fill="#969696"/>
<path d="M8.38399 14.1727C9.09499 12.8929 8.43139 11.9212 7.29378 11.0205C6.86718 10.6887 7.08048 10.0251 7.60189 10.0488C9.1898 10.0725 10.0667 9.31414 10.5644 7.89213C10.7303 7.44183 11.1806 7.48923 11.5361 7.84473C11.5598 7.89213 11.6072 7.91583 11.6309 7.96323C12.0101 9.36154 12.9107 10.0251 14.4038 10.0251C15.02 10.0251 15.1622 10.6176 14.7356 11.1153C14.7119 11.1391 14.7119 11.1628 14.6882 11.1628C13.4795 11.9212 13.2188 12.964 13.6454 14.2912C13.8587 14.9311 13.3373 15.2629 12.7211 15.0022C12.6974 15.0022 12.6737 14.9785 12.65 14.9785C11.5835 14.1253 10.5407 14.149 9.4268 14.9548C8.83429 15.3577 8.36029 15.0259 8.38399 14.1727Z" fill="#969696"/>
</svg>
