<svg width="33" height="37" viewBox="0 0 33 37" fill="none" xmlns="http://www.w3.org/2000/svg">
<path d="M16.8836 8.29918C16.8836 8.35306 16.8836 8.43389 16.8836 8.48777C16.8836 9.96953 16.8836 11.4782 16.8836 12.96C16.8836 13.0677 16.8836 13.1486 17.0172 13.1486C18.6735 13.3372 19.9825 14.1184 20.9442 15.4924C20.9709 15.5194 20.9709 15.5463 20.9977 15.5733C20.9977 15.5733 20.9977 15.5733 21.0244 15.6002C22.4135 14.8189 23.8027 14.0646 25.2186 13.2833C24.6041 12.044 24.5507 10.8047 25.1117 9.56541C25.5392 8.59553 26.2872 7.89507 27.2489 7.46401C29.1723 6.62884 31.4164 7.38319 32.4583 9.24212C33.5001 11.0741 32.9925 13.418 31.3362 14.6573C29.6532 15.9235 27.1153 15.7618 25.5926 13.876C25.272 14.0646 24.9247 14.2531 24.5774 14.4417C23.5355 15.0075 22.4937 15.6002 21.4518 16.166C21.3717 16.2198 21.3182 16.2468 21.3717 16.3815C21.9861 17.8094 21.9594 19.2103 21.3717 20.6382C21.3449 20.692 21.3449 20.719 21.3182 20.7729C22.7341 21.5542 24.15 22.3354 25.5659 23.1167C26.5276 21.9583 27.7565 21.3925 29.2525 21.5542C30.2409 21.6619 31.1225 22.066 31.8171 22.7934C33.2597 24.3021 33.3666 26.6191 32.111 28.2625C30.8554 29.8789 28.5846 30.3369 26.8215 29.3401C24.9781 28.2894 24.0966 25.8917 25.1919 23.7364C23.8027 22.9551 22.3868 22.1738 20.9977 21.4195C20.8107 21.6619 20.6236 21.9044 20.4366 22.1199C20.0894 22.524 19.6619 22.8473 19.2078 23.1167C18.7002 23.4131 18.1659 23.6286 17.6049 23.7633C17.4179 23.7903 17.2042 23.8172 16.9905 23.8441C16.9103 23.8441 16.8569 23.898 16.8569 23.9788C16.8569 25.5145 16.8569 27.0771 16.8569 28.6127C16.8569 28.6396 16.8569 28.6396 16.8569 28.6666C18.246 28.8552 19.3146 29.5287 20.0359 30.741C20.5702 31.657 20.7038 32.6808 20.4901 33.7046C20.1161 35.6712 18.2193 37.1261 16.2692 36.9914C14.1053 36.8567 12.4757 35.2671 12.3154 33.1388C12.1284 30.9296 13.7847 28.8552 16.1089 28.6666C16.1089 27.0771 16.1089 25.4606 16.1089 23.8711C14.3457 23.7094 12.9832 22.8743 11.9948 21.3925C10.6056 22.1738 9.18976 22.9551 7.8006 23.7094C8.97604 25.9994 7.88074 28.5319 5.85042 29.4748C3.9804 30.3369 1.68293 29.6365 0.614345 27.8584C-0.507672 25.9994 -0.0535216 23.6556 1.65622 22.3354C3.33924 21.0692 5.87714 21.2039 7.39988 23.1167C8.81576 22.3354 10.2316 21.5542 11.6475 20.7729C11.0064 19.2642 10.9796 17.7555 11.6475 16.2468C10.2316 15.4655 8.81576 14.6842 7.39988 13.876C6.49158 14.9806 5.34285 15.5463 3.90025 15.4655C2.85838 15.4116 1.95008 15.0075 1.20207 14.2531C-0.240525 12.7983 -0.427528 10.3736 0.881492 8.73024C2.19051 7.08684 4.51469 6.65578 6.30457 7.76036C8.09446 8.89188 8.84247 11.2358 7.8006 13.2833C9.18976 14.0646 10.6056 14.8458 12.0215 15.6271C13.01 14.1454 14.3724 13.3372 16.1356 13.1755C16.1356 11.559 16.1356 9.96953 16.1356 8.35306C13.8381 8.19142 12.0749 5.98226 12.3955 3.58451C12.6894 1.51005 14.5327 -0.0525298 16.6432 0.00135221C18.7536 0.0282932 20.4901 1.69864 20.6504 3.80003C20.8107 5.98226 19.2345 8.05671 16.8836 8.29918ZM12.9298 21.5003C12.8764 20.8806 13.2237 20.4765 13.6778 20.2071C14.1587 19.9377 14.6396 19.6683 15.1204 19.4528C15.6547 19.2103 15.7349 18.9409 15.3876 18.4829C15.3609 18.4559 15.3341 18.429 15.3341 18.4021C14.7998 17.7016 14.5327 16.9472 14.6128 16.0582C14.693 15.0344 15.3341 14.3609 16.3226 14.2531C17.4179 14.1454 18.246 14.765 18.4063 15.8427C18.5399 16.7048 18.2995 17.4861 17.8186 18.2135C17.685 18.3751 17.5782 18.5637 17.498 18.7792C17.3912 19.0486 17.4713 19.2103 17.7117 19.3719C17.8453 19.4528 18.0056 19.5066 18.1659 19.5875C18.5933 19.803 19.0475 20.0185 19.4749 20.261C19.9024 20.5304 20.1428 20.9076 20.1161 21.4464C20.1161 21.4464 20.1161 21.4733 20.1428 21.4733C21.4518 20.0185 21.7991 17.1897 19.9291 15.1961C18.1392 13.3102 15.1739 13.2294 13.3038 15.0344C11.3804 16.8934 11.4338 19.7491 12.9298 21.5003ZM26.0734 28.02C26.0467 27.5889 26.2605 27.3195 26.5543 27.104C26.6345 27.0501 26.7146 26.9962 26.8215 26.9424C27.142 26.7807 27.4893 26.5921 27.8099 26.4305C28.1839 26.2688 28.2373 26.0264 27.9969 25.7031C27.9702 25.6761 27.9702 25.6492 27.9435 25.6492C27.5695 25.1373 27.329 24.5446 27.3558 23.898C27.3825 23.2245 27.7298 22.7126 28.3175 22.524C28.5579 22.4432 28.8518 22.4432 29.1189 22.4702C29.6532 22.4971 30.0539 22.8473 30.2409 23.3323C30.4012 23.7633 30.4012 24.2213 30.2944 24.6793C30.1875 25.0565 30.0005 25.4067 29.7601 25.7031C29.4929 26.0533 29.5731 26.3227 29.9738 26.5113C30.2944 26.646 30.5882 26.7807 30.9088 26.9424C31.363 27.1848 31.7102 27.4812 31.6835 28.0739C32.7521 26.8885 33.0193 24.5177 31.2828 22.9551C29.9738 21.7697 27.7298 21.6619 26.2872 23.1706C24.7911 24.5985 25.0316 26.8346 26.0734 28.02ZM13.6778 35.1594C13.6778 35.0516 13.7045 34.9708 13.7045 34.89C13.758 34.6205 13.9183 34.405 14.132 34.2703C14.5594 34.0278 14.9868 33.7854 15.4143 33.5698C15.7883 33.3813 15.8417 33.1657 15.6013 32.8424C15.5479 32.7616 15.4944 32.6808 15.441 32.6C15.067 32.0342 14.9067 31.4146 15.0136 30.741C15.1471 30.0406 15.6814 29.5826 16.4027 29.5556C17.1775 29.5287 17.7652 29.9328 17.9255 30.6333C18.0858 31.3607 17.9255 32.0073 17.498 32.6269C17.3912 32.7616 17.311 32.8963 17.2309 33.058C17.1507 33.2735 17.2042 33.4351 17.3912 33.5429C17.498 33.5968 17.6049 33.6507 17.7117 33.7046C18.0056 33.8393 18.3262 33.974 18.5933 34.1356C18.9673 34.3511 19.2612 34.6475 19.2612 35.1594L19.2879 35.1863C20.4099 33.8662 20.4901 31.7379 19.0742 30.283C17.6316 28.8013 15.3074 28.8013 13.8915 30.2561C12.4222 31.7109 12.6092 33.9201 13.6778 35.1594ZM1.38907 13.6335C1.36236 13.1486 1.6295 12.8522 1.97679 12.6636C2.32409 12.4481 2.69809 12.2595 3.0721 12.0709C3.52625 11.8554 3.60639 11.6668 3.28581 11.2627C3.2591 11.2088 3.23239 11.1819 3.20567 11.128C2.83166 10.6161 2.67138 10.0503 2.69809 9.43071C2.75152 8.73024 3.12553 8.21836 3.79339 8.05671C4.62155 7.86813 5.47642 8.21836 5.66342 9.24212C5.77028 9.8887 5.60999 10.4814 5.2627 11.0202C5.15584 11.1819 5.04898 11.3166 4.96884 11.5052C4.86198 11.7207 4.94213 11.8823 5.15584 12.017C5.2627 12.0709 5.36956 12.1248 5.4497 12.1517C5.66342 12.2595 5.90385 12.3403 6.11757 12.4481C6.57172 12.6906 7.02587 12.9869 6.99916 13.6335C8.06775 12.4481 8.28146 10.212 6.78544 8.67636C5.36956 7.24848 3.04538 7.24848 1.6295 8.7033C0.213625 10.0773 0.186911 12.2595 1.38907 13.6335ZM19.2879 6.46719C20.4634 5.14708 20.5168 2.80322 18.9673 1.40228C17.3377 -0.0794709 14.9067 0.162998 13.571 1.9411C12.3688 3.53062 12.8497 5.57814 13.7045 6.44025C13.7045 6.0092 13.9183 5.73979 14.2388 5.52426C14.3724 5.41649 14.5327 5.33567 14.693 5.25485C14.9601 5.12014 15.2273 4.98544 15.4944 4.87767C15.815 4.74297 15.8684 4.47356 15.6814 4.20415C15.6547 4.17721 15.628 4.15027 15.6013 4.12333C15.1471 3.53062 14.9067 2.8571 15.0403 2.07581C15.1471 1.48311 15.4944 1.07899 16.0822 0.944287C16.6966 0.809582 17.2576 0.890405 17.685 1.40228C18.0323 1.83334 18.059 2.37216 17.9789 2.88404C17.8988 3.36898 17.685 3.77309 17.3912 4.15027C17.124 4.52744 17.2042 4.76991 17.6316 4.9585C17.685 4.98544 17.7652 5.01238 17.8186 5.03932C18.1392 5.20097 18.4865 5.36261 18.807 5.5512C19.1276 5.71285 19.3413 6.03614 19.2879 6.46719ZM1.36236 27.9931C1.46922 27.4273 1.57607 27.2657 2.05694 26.9693C2.40423 26.7807 2.75152 26.5921 3.09881 26.4305C3.47282 26.2688 3.55296 26.0264 3.28581 25.7031C3.23238 25.6492 3.17896 25.5684 3.15224 25.5145C2.75152 24.9218 2.56452 24.3021 2.69809 23.6017C2.80495 22.982 3.2591 22.551 3.87354 22.4432C4.83527 22.2816 5.58328 22.8743 5.63671 23.8711C5.66342 24.2752 5.58328 24.6793 5.42299 25.0565C5.31613 25.272 5.15584 25.4875 5.02227 25.7031C4.75512 26.0802 4.83527 26.3227 5.2627 26.5113C5.44971 26.5921 5.66342 26.6729 5.85042 26.7538C6.38472 27.0232 6.94573 27.2657 6.94573 28.0469C7.9876 26.8615 8.20132 24.7063 6.81215 23.1976C5.4497 21.7427 3.12553 21.6619 1.68293 23.009C0.160196 24.4099 0.213625 26.6729 1.36236 27.9931ZM31.6568 13.6335C32.9925 12.0709 32.7254 9.67317 31.1225 8.38C29.5464 7.08684 27.1687 7.41013 25.9399 9.10741C24.7644 10.6969 25.2186 12.7175 26.1002 13.5796C26.0734 13.1216 26.3406 12.8253 26.6879 12.6097C27.0619 12.3942 27.4359 12.2056 27.8366 12.017C28.2106 11.8554 28.2908 11.6129 28.0503 11.2896C27.9969 11.2088 27.9168 11.128 27.8633 11.0472C27.4893 10.5083 27.329 9.91564 27.4359 9.24212C27.516 8.64942 27.8366 8.21836 28.3976 8.05671C29.0121 7.86813 29.5731 7.94895 30.0272 8.46083C30.4279 8.91883 30.4547 9.45765 30.3745 10.0234C30.2944 10.4275 30.1341 10.8047 29.8669 11.1549C29.4929 11.6399 29.5464 11.8823 30.1341 12.1248C30.3745 12.2326 30.6149 12.3134 30.8554 12.4481C31.2561 12.6906 31.6835 12.9869 31.6568 13.6335Z" fill="#969696"/>
</svg>
